<svg width="158" height="149" viewBox="0 0 158 149" fill="none" xmlns="http://www.w3.org/2000/svg">
<path d="M23.8694 23.8867V28H10.2463V23.8867H23.8694ZM11.969 2.40625V28H6.69555V2.40625H11.969ZM22.094 12.8301V16.8379H10.2463V12.8301H22.094ZM23.8518 2.40625V6.53711H10.2463V2.40625H23.8518ZM33.4839 28H28.3863V7.29297C28.3863 5.85156 28.6675 4.63867 29.23 3.6543C29.8042 2.6582 30.607 1.9082 31.6382 1.4043C32.6812 0.888672 33.9175 0.630859 35.3472 0.630859C35.8159 0.630859 36.2671 0.666016 36.7007 0.736328C37.1343 0.794922 37.5562 0.871094 37.9663 0.964844L37.9136 4.7793C37.6909 4.7207 37.4566 4.67969 37.2105 4.65625C36.9644 4.63281 36.6773 4.62109 36.3491 4.62109C35.7398 4.62109 35.2183 4.72656 34.7847 4.9375C34.3628 5.13672 34.0406 5.43555 33.8179 5.83398C33.5952 6.23242 33.4839 6.71875 33.4839 7.29297V28ZM37.2808 8.98047V12.5664H25.5562V8.98047H37.2808ZM47.1062 28H42.0086V7.29297C42.0086 5.85156 42.2898 4.63867 42.8523 3.6543C43.4266 2.6582 44.2293 1.9082 45.2605 1.4043C46.3035 0.888672 47.5398 0.630859 48.9695 0.630859C49.4383 0.630859 49.8895 0.666016 50.323 0.736328C50.7566 0.794922 51.1785 0.871094 51.5887 0.964844L51.5359 4.7793C51.3133 4.7207 51.0789 4.67969 50.8328 4.65625C50.5867 4.63281 50.2996 4.62109 49.9715 4.62109C49.3621 4.62109 48.8406 4.72656 48.407 4.9375C47.9852 5.13672 47.6629 5.43555 47.4402 5.83398C47.2176 6.23242 47.1062 6.71875 47.1062 7.29297V28ZM50.9031 8.98047V12.5664H39.1785V8.98047H50.9031ZM62.6095 28.3516C61.1329 28.3516 59.8087 28.1172 58.6368 27.6484C57.4649 27.168 56.4688 26.5059 55.6485 25.6621C54.8399 24.8184 54.2188 23.8398 53.7852 22.7266C53.3516 21.6016 53.1348 20.4062 53.1348 19.1406V18.4375C53.1348 16.9961 53.3399 15.6777 53.7501 14.4824C54.1602 13.2871 54.7462 12.25 55.5079 11.3711C56.2813 10.4922 57.2188 9.81836 58.3204 9.34961C59.422 8.86914 60.6641 8.62891 62.047 8.62891C63.3946 8.62891 64.5899 8.85156 65.6329 9.29688C66.6759 9.74219 67.5489 10.375 68.252 11.1953C68.9669 12.0156 69.5059 13 69.8692 14.1484C70.2325 15.2852 70.4141 16.5508 70.4141 17.9453V20.0547H55.297V16.6797H65.4395V16.293C65.4395 15.5898 65.3106 14.9629 65.0528 14.4121C64.8067 13.8496 64.4317 13.4043 63.9278 13.0762C63.4239 12.748 62.7794 12.584 61.9942 12.584C61.3262 12.584 60.752 12.7305 60.2716 13.0234C59.7911 13.3164 59.3985 13.7266 59.0938 14.2539C58.8009 14.7812 58.5782 15.4023 58.4259 16.1172C58.2852 16.8203 58.2149 17.5938 58.2149 18.4375V19.1406C58.2149 19.9023 58.3204 20.6055 58.5313 21.25C58.754 21.8945 59.0645 22.4512 59.463 22.9199C59.8731 23.3887 60.3653 23.752 60.9395 24.0098C61.5255 24.2676 62.1876 24.3965 62.9259 24.3965C63.8399 24.3965 64.6895 24.2207 65.4747 23.8691C66.2716 23.5059 66.9571 22.9609 67.5313 22.2344L69.9923 24.9062C69.5938 25.4805 69.0489 26.0312 68.3575 26.5586C67.6778 27.0859 66.8575 27.5195 65.8966 27.8594C64.9356 28.1875 63.8399 28.3516 62.6095 28.3516ZM81.8744 24.3965C82.4955 24.3965 83.0462 24.2793 83.5267 24.0449C84.0072 23.7988 84.3822 23.459 84.6517 23.0254C84.933 22.5801 85.0795 22.0586 85.0912 21.4609H89.8548C89.8431 22.7969 89.4857 23.9863 88.7826 25.0293C88.0795 26.0605 87.1361 26.875 85.9525 27.4727C84.7689 28.0586 83.4447 28.3516 81.9798 28.3516C80.5033 28.3516 79.2142 28.1055 78.1127 27.6133C77.0228 27.1211 76.1146 26.4414 75.388 25.5742C74.6615 24.6953 74.1166 23.6758 73.7533 22.5156C73.39 21.3438 73.2084 20.0898 73.2084 18.7539V18.2441C73.2084 16.8965 73.39 15.6426 73.7533 14.4824C74.1166 13.3105 74.6615 12.291 75.388 11.4238C76.1146 10.5449 77.0228 9.85938 78.1127 9.36719C79.2025 8.875 80.4798 8.62891 81.9447 8.62891C83.5033 8.62891 84.8685 8.92773 86.0404 9.52539C87.224 10.123 88.1498 10.9785 88.8177 12.0918C89.4974 13.1934 89.8431 14.5 89.8548 16.0117H85.0912C85.0795 15.3789 84.9447 14.8047 84.6869 14.2891C84.4408 13.7734 84.0775 13.3633 83.597 13.0586C83.1283 12.7422 82.5482 12.584 81.8568 12.584C81.1185 12.584 80.515 12.7422 80.0462 13.0586C79.5775 13.3633 79.2142 13.7852 78.9564 14.3242C78.6986 14.8516 78.517 15.4551 78.4115 16.1348C78.3177 16.8027 78.2709 17.5059 78.2709 18.2441V18.7539C78.2709 19.4922 78.3177 20.2012 78.4115 20.8809C78.5052 21.5605 78.681 22.1641 78.9388 22.6914C79.2084 23.2188 79.5775 23.6348 80.0462 23.9395C80.515 24.2441 81.1244 24.3965 81.8744 24.3965ZM102.827 8.98047V12.5664H91.7526V8.98047H102.827ZM94.4948 4.28711H99.5573V22.2695C99.5573 22.8203 99.6276 23.2422 99.7682 23.5352C99.9205 23.8281 100.143 24.0332 100.436 24.1504C100.729 24.2559 101.098 24.3086 101.544 24.3086C101.86 24.3086 102.141 24.2969 102.387 24.2734C102.645 24.2383 102.862 24.2031 103.038 24.168L103.055 27.8945C102.622 28.0352 102.153 28.1465 101.649 28.2285C101.145 28.3105 100.589 28.3516 99.9791 28.3516C98.8659 28.3516 97.8932 28.1699 97.0612 27.8066C96.2409 27.4316 95.608 26.834 95.1627 26.0137C94.7174 25.1934 94.4948 24.1152 94.4948 22.7793V4.28711ZM111.773 8.98047V28H106.693V8.98047H111.773ZM106.377 4.02344C106.377 3.28516 106.635 2.67578 107.15 2.19531C107.666 1.71484 108.357 1.47461 109.225 1.47461C110.08 1.47461 110.766 1.71484 111.281 2.19531C111.809 2.67578 112.072 3.28516 112.072 4.02344C112.072 4.76172 111.809 5.37109 111.281 5.85156C110.766 6.33203 110.08 6.57227 109.225 6.57227C108.357 6.57227 107.666 6.33203 107.15 5.85156C106.635 5.37109 106.377 4.76172 106.377 4.02344ZM123.146 24.3086L127.364 8.98047H132.655L126.239 28H123.04L123.146 24.3086ZM120.245 8.98047L124.482 24.3262L124.57 28H121.353L114.937 8.98047H120.245ZM144.151 28.3516C142.674 28.3516 141.35 28.1172 140.178 27.6484C139.006 27.168 138.01 26.5059 137.19 25.6621C136.381 24.8184 135.76 23.8398 135.327 22.7266C134.893 21.6016 134.676 20.4062 134.676 19.1406V18.4375C134.676 16.9961 134.881 15.6777 135.291 14.4824C135.702 13.2871 136.288 12.25 137.049 11.3711C137.823 10.4922 138.76 9.81836 139.862 9.34961C140.963 8.86914 142.206 8.62891 143.588 8.62891C144.936 8.62891 146.131 8.85156 147.174 9.29688C148.217 9.74219 149.09 10.375 149.793 11.1953C150.508 12.0156 151.047 13 151.411 14.1484C151.774 15.2852 151.956 16.5508 151.956 17.9453V20.0547H136.838V16.6797H146.981V16.293C146.981 15.5898 146.852 14.9629 146.594 14.4121C146.348 13.8496 145.973 13.4043 145.469 13.0762C144.965 12.748 144.321 12.584 143.536 12.584C142.868 12.584 142.293 12.7305 141.813 13.0234C141.332 13.3164 140.94 13.7266 140.635 14.2539C140.342 14.7812 140.12 15.4023 139.967 16.1172C139.827 16.8203 139.756 17.5938 139.756 18.4375V19.1406C139.756 19.9023 139.862 20.6055 140.073 21.25C140.295 21.8945 140.606 22.4512 141.004 22.9199C141.415 23.3887 141.907 23.752 142.481 24.0098C143.067 24.2676 143.729 24.3965 144.467 24.3965C145.381 24.3965 146.231 24.2207 147.016 23.8691C147.813 23.5059 148.499 22.9609 149.073 22.2344L151.534 24.9062C151.135 25.4805 150.59 26.0312 149.899 26.5586C149.219 27.0859 148.399 27.5195 147.438 27.8594C146.477 28.1875 145.381 28.3516 144.151 28.3516ZM15.2645 61.3027C15.2645 60.8457 15.1942 60.4355 15.0536 60.0723C14.9247 59.6973 14.6786 59.3574 14.3153 59.0527C13.952 58.7363 13.4423 58.4258 12.786 58.1211C12.1298 57.8164 11.2802 57.5 10.2372 57.1719C9.07703 56.7969 7.97547 56.375 6.9325 55.9062C5.90125 55.4375 4.98719 54.8926 4.19032 54.2715C3.40516 53.6387 2.78407 52.9062 2.32703 52.0742C1.88172 51.2422 1.65907 50.2754 1.65907 49.1738C1.65907 48.1074 1.89344 47.1406 2.36219 46.2734C2.83094 45.3945 3.48719 44.6445 4.33094 44.0234C5.17469 43.3906 6.17078 42.9043 7.31922 42.5645C8.47938 42.2246 9.75086 42.0547 11.1337 42.0547C13.0204 42.0547 14.6669 42.3945 16.0731 43.0742C17.4794 43.7539 18.5692 44.6855 19.3427 45.8691C20.1278 47.0527 20.5204 48.4062 20.5204 49.9297H15.2821C15.2821 49.1797 15.1239 48.5234 14.8075 47.9609C14.5028 47.3867 14.0341 46.9355 13.4013 46.6074C12.7802 46.2793 11.995 46.1152 11.0458 46.1152C10.1317 46.1152 9.37 46.2559 8.76063 46.5371C8.15125 46.8066 7.69422 47.1758 7.38953 47.6445C7.08485 48.1016 6.9325 48.6172 6.9325 49.1914C6.9325 49.625 7.03797 50.0176 7.24891 50.3691C7.47157 50.7207 7.79969 51.0488 8.23328 51.3535C8.66688 51.6582 9.20008 51.9453 9.83289 52.2148C10.4657 52.4844 11.1981 52.748 12.0302 53.0059C13.4247 53.4277 14.6493 53.9023 15.704 54.4297C16.7704 54.957 17.661 55.5488 18.3759 56.2051C19.0907 56.8613 19.6298 57.6055 19.993 58.4375C20.3563 59.2695 20.538 60.2129 20.538 61.2676C20.538 62.3809 20.3212 63.377 19.8876 64.2559C19.454 65.1348 18.827 65.8789 18.0067 66.4883C17.1864 67.0977 16.2079 67.5605 15.0712 67.877C13.9345 68.1934 12.663 68.3516 11.2567 68.3516C9.9911 68.3516 8.74305 68.1875 7.51258 67.8594C6.28211 67.5195 5.16297 67.0098 4.15516 66.3301C3.15907 65.6504 2.36219 64.7832 1.76453 63.7285C1.16688 62.6738 0.86805 61.4258 0.86805 59.9844H6.15907C6.15907 60.7812 6.28211 61.4551 6.52821 62.0059C6.7743 62.5566 7.12 63.002 7.56532 63.3418C8.02235 63.6816 8.56141 63.9277 9.1825 64.0801C9.81532 64.2324 10.5067 64.3086 11.2567 64.3086C12.1708 64.3086 12.9208 64.1797 13.5067 63.9219C14.1044 63.6641 14.5438 63.3066 14.8251 62.8496C15.118 62.3926 15.2645 61.877 15.2645 61.3027ZM23.7189 58.6836V58.3145C23.7189 56.9199 23.9181 55.6367 24.3166 54.4648C24.715 53.2812 25.2951 52.2559 26.0568 51.3887C26.8185 50.5215 27.756 49.8477 28.8693 49.3672C29.9826 48.875 31.2599 48.6289 32.7013 48.6289C34.1427 48.6289 35.4259 48.875 36.5509 49.3672C37.6759 49.8477 38.6193 50.5215 39.381 51.3887C40.1545 52.2559 40.7404 53.2812 41.1388 54.4648C41.5373 55.6367 41.7365 56.9199 41.7365 58.3145V58.6836C41.7365 60.0664 41.5373 61.3496 41.1388 62.5332C40.7404 63.7051 40.1545 64.7305 39.381 65.6094C38.6193 66.4766 37.6818 67.1504 36.5685 67.6309C35.4552 68.1113 34.1779 68.3516 32.7365 68.3516C31.2951 68.3516 30.0119 68.1113 28.8869 67.6309C27.7736 67.1504 26.8302 66.4766 26.0568 65.6094C25.2951 64.7305 24.715 63.7051 24.3166 62.5332C23.9181 61.3496 23.7189 60.0664 23.7189 58.6836ZM28.7814 58.3145V58.6836C28.7814 59.4805 28.8517 60.2246 28.9923 60.916C29.133 61.6074 29.3556 62.2168 29.6603 62.7441C29.9767 63.2598 30.3869 63.6641 30.8908 63.957C31.3947 64.25 32.0099 64.3965 32.7365 64.3965C33.4396 64.3965 34.0431 64.25 34.547 63.957C35.0509 63.6641 35.4552 63.2598 35.7599 62.7441C36.0646 62.2168 36.2873 61.6074 36.4279 60.916C36.5802 60.2246 36.6564 59.4805 36.6564 58.6836V58.3145C36.6564 57.541 36.5802 56.8145 36.4279 56.1348C36.2873 55.4434 36.0588 54.834 35.7423 54.3066C35.4377 53.7676 35.0334 53.3457 34.5295 53.041C34.0256 52.7363 33.4162 52.584 32.7013 52.584C31.9865 52.584 31.3771 52.7363 30.8732 53.041C30.381 53.3457 29.9767 53.7676 29.6603 54.3066C29.3556 54.834 29.133 55.4434 28.9923 56.1348C28.8517 56.8145 28.7814 57.541 28.7814 58.3145ZM50.9116 41V68H45.8315V41H50.9116ZM67.0652 63.4473V48.9805H72.1277V68H67.364L67.0652 63.4473ZM67.6277 59.5449L69.1218 59.5098C69.1218 60.7754 68.9753 61.9531 68.6823 63.043C68.3894 64.1211 67.9499 65.0586 67.364 65.8555C66.778 66.6406 66.0398 67.2559 65.1491 67.7012C64.2585 68.1348 63.2097 68.3516 62.0027 68.3516C61.0769 68.3516 60.2214 68.2227 59.4362 67.9648C58.6628 67.6953 57.9948 67.2793 57.4323 66.7168C56.8816 66.1426 56.448 65.4102 56.1316 64.5195C55.8269 63.6172 55.6745 62.5332 55.6745 61.2676V48.9805H60.737V61.3027C60.737 61.8652 60.8015 62.3398 60.9304 62.7266C61.071 63.1133 61.2644 63.4297 61.5105 63.6758C61.7566 63.9219 62.0437 64.0977 62.3718 64.2031C62.7116 64.3086 63.0866 64.3613 63.4968 64.3613C64.5398 64.3613 65.3601 64.1504 65.9577 63.7285C66.5671 63.3066 66.9948 62.7324 67.2409 62.0059C67.4987 61.2676 67.6277 60.4473 67.6277 59.5449ZM86.0312 48.9805V52.5664H74.957V48.9805H86.0312ZM77.6992 44.2871H82.7617V62.2695C82.7617 62.8203 82.832 63.2422 82.9727 63.5352C83.125 63.8281 83.3477 64.0332 83.6406 64.1504C83.9336 64.2559 84.3027 64.3086 84.748 64.3086C85.0645 64.3086 85.3457 64.2969 85.5918 64.2734C85.8496 64.2383 86.0664 64.2031 86.2422 64.168L86.2598 67.8945C85.8262 68.0352 85.3574 68.1465 84.8535 68.2285C84.3496 68.3105 83.793 68.3516 83.1836 68.3516C82.0703 68.3516 81.0977 68.1699 80.2656 67.8066C79.4453 67.4316 78.8125 66.834 78.3672 66.0137C77.9219 65.1934 77.6992 64.1152 77.6992 62.7793V44.2871ZM94.9778 48.9805V68H89.8977V48.9805H94.9778ZM89.5813 44.0234C89.5813 43.2852 89.8391 42.6758 90.3548 42.1953C90.8704 41.7148 91.5618 41.4746 92.429 41.4746C93.2845 41.4746 93.97 41.7148 94.4856 42.1953C95.013 42.6758 95.2766 43.2852 95.2766 44.0234C95.2766 44.7617 95.013 45.3711 94.4856 45.8516C93.97 46.332 93.2845 46.5723 92.429 46.5723C91.5618 46.5723 90.8704 46.332 90.3548 45.8516C89.8391 45.3711 89.5813 44.7617 89.5813 44.0234ZM99.0728 58.6836V58.3145C99.0728 56.9199 99.272 55.6367 99.6705 54.4648C100.069 53.2812 100.649 52.2559 101.411 51.3887C102.172 50.5215 103.11 49.8477 104.223 49.3672C105.336 48.875 106.614 48.6289 108.055 48.6289C109.497 48.6289 110.78 48.875 111.905 49.3672C113.03 49.8477 113.973 50.5215 114.735 51.3887C115.508 52.2559 116.094 53.2812 116.493 54.4648C116.891 55.6367 117.09 56.9199 117.09 58.3145V58.6836C117.09 60.0664 116.891 61.3496 116.493 62.5332C116.094 63.7051 115.508 64.7305 114.735 65.6094C113.973 66.4766 113.036 67.1504 111.922 67.6309C110.809 68.1113 109.532 68.3516 108.09 68.3516C106.649 68.3516 105.366 68.1113 104.241 67.6309C103.128 67.1504 102.184 66.4766 101.411 65.6094C100.649 64.7305 100.069 63.7051 99.6705 62.5332C99.272 61.3496 99.0728 60.0664 99.0728 58.6836ZM104.135 58.3145V58.6836C104.135 59.4805 104.206 60.2246 104.346 60.916C104.487 61.6074 104.71 62.2168 105.014 62.7441C105.331 63.2598 105.741 63.6641 106.245 63.957C106.749 64.25 107.364 64.3965 108.09 64.3965C108.794 64.3965 109.397 64.25 109.901 63.957C110.405 63.6641 110.809 63.2598 111.114 62.7441C111.419 62.2168 111.641 61.6074 111.782 60.916C111.934 60.2246 112.01 59.4805 112.01 58.6836V58.3145C112.01 57.541 111.934 56.8145 111.782 56.1348C111.641 55.4434 111.413 54.834 111.096 54.3066C110.792 53.7676 110.387 53.3457 109.883 53.041C109.379 52.7363 108.77 52.584 108.055 52.584C107.34 52.584 106.731 52.7363 106.227 53.041C105.735 53.3457 105.331 53.7676 105.014 54.3066C104.71 54.834 104.487 55.4434 104.346 56.1348C104.206 56.8145 104.135 57.541 104.135 58.3145ZM125.879 53.041V68H120.816V48.9805H125.562L125.879 53.041ZM125.14 57.8223H123.769C123.769 56.416 123.951 55.1504 124.314 54.0254C124.678 52.8887 125.187 51.9219 125.844 51.125C126.5 50.3164 127.279 49.7012 128.181 49.2793C129.096 48.8457 130.115 48.6289 131.24 48.6289C132.131 48.6289 132.945 48.7578 133.683 49.0156C134.422 49.2734 135.055 49.6836 135.582 50.2461C136.121 50.8086 136.531 51.5527 136.812 52.4785C137.105 53.4043 137.252 54.5352 137.252 55.8711V68H132.154V55.8535C132.154 55.0098 132.037 54.3535 131.803 53.8848C131.568 53.416 131.223 53.0879 130.765 52.9004C130.32 52.7012 129.769 52.6016 129.113 52.6016C128.433 52.6016 127.842 52.7363 127.338 53.0059C126.846 53.2754 126.435 53.6504 126.107 54.1309C125.791 54.5996 125.551 55.1504 125.387 55.7832C125.223 56.416 125.14 57.0957 125.14 57.8223ZM152.105 62.7441C152.105 62.3809 151.999 62.0527 151.788 61.7598C151.577 61.4668 151.185 61.1973 150.61 60.9512C150.048 60.6934 149.234 60.459 148.167 60.248C147.206 60.0371 146.31 59.7734 145.478 59.457C144.657 59.1289 143.943 58.7363 143.333 58.2793C142.735 57.8223 142.267 57.2832 141.927 56.6621C141.587 56.0293 141.417 55.3086 141.417 54.5C141.417 53.7031 141.587 52.9531 141.927 52.25C142.278 51.5469 142.776 50.9258 143.421 50.3867C144.077 49.8359 144.874 49.4082 145.812 49.1035C146.761 48.7871 147.827 48.6289 149.011 48.6289C150.663 48.6289 152.081 48.8926 153.265 49.4199C154.46 49.9473 155.374 50.6738 156.007 51.5996C156.651 52.5137 156.974 53.5566 156.974 54.7285H151.911C151.911 54.2363 151.806 53.7969 151.595 53.4102C151.396 53.0117 151.079 52.7012 150.646 52.4785C150.224 52.2441 149.673 52.127 148.993 52.127C148.431 52.127 147.944 52.2266 147.534 52.4258C147.124 52.6133 146.808 52.8711 146.585 53.1992C146.374 53.5156 146.269 53.8672 146.269 54.2539C146.269 54.5469 146.327 54.8105 146.444 55.0449C146.573 55.2676 146.778 55.4727 147.06 55.6602C147.341 55.8477 147.704 56.0234 148.15 56.1875C148.607 56.3398 149.169 56.4805 149.837 56.6094C151.208 56.8906 152.433 57.2598 153.511 57.7168C154.589 58.1621 155.444 58.7715 156.077 59.5449C156.71 60.3066 157.026 61.3086 157.026 62.5508C157.026 63.3945 156.839 64.168 156.464 64.8711C156.089 65.5742 155.55 66.1895 154.847 66.7168C154.144 67.2324 153.3 67.6367 152.316 67.9297C151.343 68.2109 150.247 68.3516 149.028 68.3516C147.259 68.3516 145.759 68.0352 144.528 67.4023C143.31 66.7695 142.384 65.9668 141.751 64.9941C141.13 64.0098 140.819 63.002 140.819 61.9707H145.618C145.642 62.6621 145.818 63.2188 146.146 63.6406C146.485 64.0625 146.913 64.3672 147.429 64.5547C147.956 64.7422 148.525 64.8359 149.134 64.8359C149.79 64.8359 150.335 64.748 150.769 64.5723C151.202 64.3848 151.53 64.1387 151.753 63.834C151.987 63.5176 152.105 63.1543 152.105 62.7441ZM15.3524 82.4062V108H10.079V82.4062H15.3524ZM25.5477 93.3398V97.4531H13.911V93.3398H25.5477ZM26.7782 82.4062V86.5371H13.911V82.4062H26.7782ZM29.0451 98.6836V98.3145C29.0451 96.9199 29.2443 95.6367 29.6427 94.4648C30.0412 93.2812 30.6213 92.2559 31.383 91.3887C32.1447 90.5215 33.0822 89.8477 34.1955 89.3672C35.3088 88.875 36.5861 88.6289 38.0275 88.6289C39.4689 88.6289 40.7521 88.875 41.8771 89.3672C43.0021 89.8477 43.9455 90.5215 44.7072 91.3887C45.4806 92.2559 46.0666 93.2812 46.465 94.4648C46.8634 95.6367 47.0627 96.9199 47.0627 98.3145V98.6836C47.0627 100.066 46.8634 101.35 46.465 102.533C46.0666 103.705 45.4806 104.73 44.7072 105.609C43.9455 106.477 43.008 107.15 41.8947 107.631C40.7814 108.111 39.5041 108.352 38.0627 108.352C36.6213 108.352 35.3381 108.111 34.2131 107.631C33.0998 107.15 32.1564 106.477 31.383 105.609C30.6213 104.73 30.0412 103.705 29.6427 102.533C29.2443 101.35 29.0451 100.066 29.0451 98.6836ZM34.1076 98.3145V98.6836C34.1076 99.4805 34.1779 100.225 34.3185 100.916C34.4591 101.607 34.6818 102.217 34.9865 102.744C35.3029 103.26 35.7131 103.664 36.217 103.957C36.7209 104.25 37.3361 104.396 38.0627 104.396C38.7658 104.396 39.3693 104.25 39.8732 103.957C40.3771 103.664 40.7814 103.26 41.0861 102.744C41.3908 102.217 41.6134 101.607 41.7541 100.916C41.9064 100.225 41.9826 99.4805 41.9826 98.6836V98.3145C41.9826 97.541 41.9064 96.8145 41.7541 96.1348C41.6134 95.4434 41.3849 94.834 41.0685 94.3066C40.7638 93.7676 40.3595 93.3457 39.8556 93.041C39.3517 92.7363 38.7423 92.584 38.0275 92.584C37.3127 92.584 36.7033 92.7363 36.1994 93.041C35.7072 93.3457 35.3029 93.7676 34.9865 94.3066C34.6818 94.834 34.4591 95.4434 34.3185 96.1348C34.1779 96.8145 34.1076 97.541 34.1076 98.3145ZM55.9565 93.1289V108H50.894V88.9805H55.6577L55.9565 93.1289ZM61.687 88.8574L61.5991 93.5508C61.353 93.5156 61.0541 93.4863 60.7026 93.4629C60.3627 93.4277 60.0522 93.4102 59.7709 93.4102C59.0561 93.4102 58.435 93.5039 57.9077 93.6914C57.392 93.8672 56.9584 94.1309 56.6069 94.4824C56.267 94.834 56.0092 95.2617 55.8334 95.7656C55.6694 96.2695 55.5756 96.8438 55.5522 97.4883L54.5327 97.1719C54.5327 95.9414 54.6557 94.8105 54.9018 93.7793C55.1479 92.7363 55.5053 91.8281 55.9741 91.0547C56.4545 90.2812 57.0405 89.6836 57.7319 89.2617C58.4233 88.8398 59.2143 88.6289 60.1049 88.6289C60.3862 88.6289 60.6733 88.6523 60.9662 88.6992C61.2592 88.7344 61.4995 88.7871 61.687 88.8574ZM78.3145 82.4062L83.6582 94.0781L89.002 82.4062H94.75L86.3301 98.6836V108H80.9863V98.6836L72.5488 82.4062H78.3145ZM95.5227 98.6836V98.3145C95.5227 96.9199 95.722 95.6367 96.1204 94.4648C96.5188 93.2812 97.0989 92.2559 97.8606 91.3887C98.6223 90.5215 99.5598 89.8477 100.673 89.3672C101.786 88.875 103.064 88.6289 104.505 88.6289C105.947 88.6289 107.23 88.875 108.355 89.3672C109.48 89.8477 110.423 90.5215 111.185 91.3887C111.958 92.2559 112.544 93.2812 112.943 94.4648C113.341 95.6367 113.54 96.9199 113.54 98.3145V98.6836C113.54 100.066 113.341 101.35 112.943 102.533C112.544 103.705 111.958 104.73 111.185 105.609C110.423 106.477 109.486 107.15 108.372 107.631C107.259 108.111 105.982 108.352 104.54 108.352C103.099 108.352 101.816 108.111 100.691 107.631C99.5774 107.15 98.6341 106.477 97.8606 105.609C97.0989 104.73 96.5188 103.705 96.1204 102.533C95.722 101.35 95.5227 100.066 95.5227 98.6836ZM100.585 98.3145V98.6836C100.585 99.4805 100.656 100.225 100.796 100.916C100.937 101.607 101.159 102.217 101.464 102.744C101.781 103.26 102.191 103.664 102.695 103.957C103.199 104.25 103.814 104.396 104.54 104.396C105.243 104.396 105.847 104.25 106.351 103.957C106.855 103.664 107.259 103.26 107.564 102.744C107.868 102.217 108.091 101.607 108.232 100.916C108.384 100.225 108.46 99.4805 108.46 98.6836V98.3145C108.46 97.541 108.384 96.8145 108.232 96.1348C108.091 95.4434 107.863 94.834 107.546 94.3066C107.241 93.7676 106.837 93.3457 106.333 93.041C105.829 92.7363 105.22 92.584 104.505 92.584C103.79 92.584 103.181 92.7363 102.677 93.041C102.185 93.3457 101.781 93.7676 101.464 94.3066C101.159 94.834 100.937 95.4434 100.796 96.1348C100.656 96.8145 100.585 97.541 100.585 98.3145ZM128.622 103.447V88.9805H133.684V108H128.92L128.622 103.447ZM129.184 99.5449L130.678 99.5098C130.678 100.775 130.532 101.953 130.239 103.043C129.946 104.121 129.506 105.059 128.92 105.855C128.335 106.641 127.596 107.256 126.706 107.701C125.815 108.135 124.766 108.352 123.559 108.352C122.633 108.352 121.778 108.223 120.993 107.965C120.219 107.695 119.551 107.279 118.989 106.717C118.438 106.143 118.004 105.41 117.688 104.52C117.383 103.617 117.231 102.533 117.231 101.268V88.9805H122.294V101.303C122.294 101.865 122.358 102.34 122.487 102.727C122.628 103.113 122.821 103.43 123.067 103.676C123.313 103.922 123.6 104.098 123.928 104.203C124.268 104.309 124.643 104.361 125.053 104.361C126.096 104.361 126.917 104.15 127.514 103.729C128.124 103.307 128.551 102.732 128.797 102.006C129.055 101.268 129.184 100.447 129.184 99.5449ZM143.334 93.1289V108H138.271V88.9805H143.035L143.334 93.1289ZM149.064 88.8574L148.976 93.5508C148.73 93.5156 148.431 93.4863 148.08 93.4629C147.74 93.4277 147.43 93.4102 147.148 93.4102C146.433 93.4102 145.812 93.5039 145.285 93.6914C144.769 93.8672 144.336 94.1309 143.984 94.4824C143.644 94.834 143.387 95.2617 143.211 95.7656C143.047 96.2695 142.953 96.8438 142.93 97.4883L141.91 97.1719C141.91 95.9414 142.033 94.8105 142.279 93.7793C142.525 92.7363 142.883 91.8281 143.351 91.0547C143.832 90.2812 144.418 89.6836 145.109 89.2617C145.801 88.8398 146.592 88.6289 147.482 88.6289C147.764 88.6289 148.051 88.6523 148.344 88.6992C148.637 88.7344 148.877 88.7871 149.064 88.8574ZM14.8863 136.768H8.31203L8.27688 133.146H13.7964C14.7691 133.146 15.5659 133.023 16.187 132.777C16.8081 132.52 17.271 132.15 17.5757 131.67C17.8921 131.178 18.0503 130.58 18.0503 129.877C18.0503 129.08 17.898 128.436 17.5933 127.943C17.3003 127.451 16.8374 127.094 16.2046 126.871C15.5835 126.648 14.7808 126.537 13.7964 126.537H10.1402V148H4.86672V122.406H13.7964C15.2847 122.406 16.6148 122.547 17.7866 122.828C18.9702 123.109 19.9722 123.537 20.7925 124.111C21.6128 124.686 22.2398 125.412 22.6734 126.291C23.107 127.158 23.3238 128.189 23.3238 129.385C23.3238 130.439 23.0835 131.412 22.6031 132.303C22.1343 133.193 21.3902 133.92 20.3706 134.482C19.3628 135.045 18.0445 135.355 16.4156 135.414L14.8863 136.768ZM14.6577 148H6.87063L8.92727 143.887H14.6577C15.5835 143.887 16.3394 143.74 16.9253 143.447C17.5113 143.143 17.9448 142.732 18.2261 142.217C18.5073 141.701 18.648 141.109 18.648 140.441C18.648 139.691 18.5191 139.041 18.2613 138.49C18.0152 137.939 17.6167 137.518 17.0659 137.225C16.5152 136.92 15.7886 136.768 14.8863 136.768H9.80618L9.84133 133.146H16.1695L17.3823 134.57C18.9409 134.547 20.1948 134.822 21.1441 135.396C22.105 135.959 22.8023 136.691 23.2359 137.594C23.6812 138.496 23.9038 139.463 23.9038 140.494C23.9038 142.135 23.5464 143.518 22.8316 144.643C22.1167 145.756 21.0679 146.594 19.6851 147.156C18.314 147.719 16.6382 148 14.6577 148ZM39.5125 143.447V128.98H44.575V148H39.8113L39.5125 143.447ZM40.075 139.545L41.5691 139.51C41.5691 140.775 41.4227 141.953 41.1297 143.043C40.8367 144.121 40.3973 145.059 39.8113 145.855C39.2254 146.641 38.4871 147.256 37.5965 147.701C36.7059 148.135 35.657 148.352 34.45 148.352C33.5242 148.352 32.6688 148.223 31.8836 147.965C31.1102 147.695 30.4422 147.279 29.8797 146.717C29.3289 146.143 28.8953 145.41 28.5789 144.52C28.2742 143.617 28.1219 142.533 28.1219 141.268V128.98H33.1844V141.303C33.1844 141.865 33.2488 142.34 33.3777 142.727C33.5184 143.113 33.7117 143.43 33.9578 143.676C34.2039 143.922 34.491 144.098 34.8191 144.203C35.159 144.309 35.534 144.361 35.9441 144.361C36.9871 144.361 37.8074 144.15 38.4051 143.729C39.0145 143.307 39.4422 142.732 39.6883 142.006C39.9461 141.268 40.075 140.447 40.075 139.545ZM59.4454 142.744C59.4454 142.381 59.3399 142.053 59.129 141.76C58.918 141.467 58.5255 141.197 57.9512 140.951C57.3887 140.693 56.5743 140.459 55.5079 140.248C54.547 140.037 53.6505 139.773 52.8184 139.457C51.9981 139.129 51.2833 138.736 50.6739 138.279C50.0762 137.822 49.6075 137.283 49.2677 136.662C48.9278 136.029 48.7579 135.309 48.7579 134.5C48.7579 133.703 48.9278 132.953 49.2677 132.25C49.6192 131.547 50.1173 130.926 50.7618 130.387C51.418 129.836 52.2149 129.408 53.1524 129.104C54.1016 128.787 55.168 128.629 56.3516 128.629C58.004 128.629 59.422 128.893 60.6055 129.42C61.8009 129.947 62.7149 130.674 63.3477 131.6C63.9923 132.514 64.3145 133.557 64.3145 134.729H59.252C59.252 134.236 59.1466 133.797 58.9356 133.41C58.7364 133.012 58.42 132.701 57.9864 132.479C57.5645 132.244 57.0137 132.127 56.3341 132.127C55.7716 132.127 55.2852 132.227 54.8751 132.426C54.4649 132.613 54.1485 132.871 53.9259 133.199C53.7149 133.516 53.6095 133.867 53.6095 134.254C53.6095 134.547 53.668 134.811 53.7852 135.045C53.9141 135.268 54.1192 135.473 54.4005 135.66C54.6817 135.848 55.045 136.023 55.4903 136.188C55.9473 136.34 56.5098 136.48 57.1778 136.609C58.5489 136.891 59.7735 137.26 60.8516 137.717C61.9298 138.162 62.7852 138.771 63.418 139.545C64.0509 140.307 64.3673 141.309 64.3673 142.551C64.3673 143.395 64.1798 144.168 63.8048 144.871C63.4298 145.574 62.8907 146.189 62.1876 146.717C61.4845 147.232 60.6407 147.637 59.6563 147.93C58.6837 148.211 57.588 148.352 56.3692 148.352C54.5997 148.352 53.0997 148.035 51.8692 147.402C50.6505 146.77 49.7247 145.967 49.0919 144.994C48.4708 144.01 48.1602 143.002 48.1602 141.971H52.9591C52.9825 142.662 53.1583 143.219 53.4864 143.641C53.8262 144.062 54.254 144.367 54.7696 144.555C55.297 144.742 55.8653 144.836 56.4747 144.836C57.1309 144.836 57.6759 144.748 58.1095 144.572C58.543 144.385 58.8712 144.139 59.0938 143.834C59.3282 143.518 59.4454 143.154 59.4454 142.744ZM73.7181 128.98V148H68.638V128.98H73.7181ZM68.3216 124.023C68.3216 123.285 68.5795 122.676 69.0951 122.195C69.6107 121.715 70.3021 121.475 71.1693 121.475C72.0248 121.475 72.7103 121.715 73.2259 122.195C73.7533 122.676 74.017 123.285 74.017 124.023C74.017 124.762 73.7533 125.371 73.2259 125.852C72.7103 126.332 72.0248 126.572 71.1693 126.572C70.3021 126.572 69.6107 126.332 69.0951 125.852C68.5795 125.371 68.3216 124.762 68.3216 124.023ZM83.5788 133.041V148H78.5163V128.98H83.2623L83.5788 133.041ZM82.8405 137.822H81.4694C81.4694 136.416 81.651 135.15 82.0143 134.025C82.3776 132.889 82.8873 131.922 83.5436 131.125C84.1998 130.316 84.9791 129.701 85.8815 129.279C86.7955 128.846 87.8151 128.629 88.9401 128.629C89.8307 128.629 90.6452 128.758 91.3834 129.016C92.1217 129.273 92.7545 129.684 93.2819 130.246C93.8209 130.809 94.2311 131.553 94.5123 132.479C94.8053 133.404 94.9518 134.535 94.9518 135.871V148H89.8541V135.854C89.8541 135.01 89.737 134.354 89.5026 133.885C89.2682 133.416 88.9225 133.088 88.4655 132.9C88.0202 132.701 87.4694 132.602 86.8131 132.602C86.1334 132.602 85.5416 132.736 85.0377 133.006C84.5455 133.275 84.1354 133.65 83.8073 134.131C83.4909 134.6 83.2506 135.15 83.0866 135.783C82.9225 136.416 82.8405 137.096 82.8405 137.822ZM108.275 148.352C106.799 148.352 105.475 148.117 104.303 147.648C103.131 147.168 102.135 146.506 101.314 145.662C100.506 144.818 99.8847 143.84 99.4511 142.727C99.0175 141.602 98.8007 140.406 98.8007 139.141V138.438C98.8007 136.996 99.0058 135.678 99.4159 134.482C99.8261 133.287 100.412 132.25 101.174 131.371C101.947 130.492 102.885 129.818 103.986 129.35C105.088 128.869 106.33 128.629 107.713 128.629C109.06 128.629 110.256 128.852 111.299 129.297C112.342 129.742 113.215 130.375 113.918 131.195C114.633 132.016 115.172 133 115.535 134.148C115.898 135.285 116.08 136.551 116.08 137.945V140.055H100.963V136.68H111.105V136.293C111.105 135.59 110.976 134.963 110.719 134.412C110.473 133.85 110.098 133.404 109.594 133.076C109.09 132.748 108.445 132.584 107.66 132.584C106.992 132.584 106.418 132.73 105.937 133.023C105.457 133.316 105.064 133.727 104.76 134.254C104.467 134.781 104.244 135.402 104.092 136.117C103.951 136.82 103.881 137.594 103.881 138.438V139.141C103.881 139.902 103.986 140.605 104.197 141.25C104.42 141.895 104.73 142.451 105.129 142.92C105.539 143.389 106.031 143.752 106.605 144.01C107.191 144.268 107.853 144.396 108.592 144.396C109.506 144.396 110.355 144.221 111.141 143.869C111.937 143.506 112.623 142.961 113.197 142.234L115.658 144.906C115.26 145.48 114.715 146.031 114.023 146.559C113.344 147.086 112.523 147.52 111.562 147.859C110.601 148.188 109.506 148.352 108.275 148.352ZM129.966 142.744C129.966 142.381 129.861 142.053 129.65 141.76C129.439 141.467 129.046 141.197 128.472 140.951C127.909 140.693 127.095 140.459 126.029 140.248C125.068 140.037 124.171 139.773 123.339 139.457C122.519 139.129 121.804 138.736 121.195 138.279C120.597 137.822 120.128 137.283 119.788 136.662C119.448 136.029 119.279 135.309 119.279 134.5C119.279 133.703 119.448 132.953 119.788 132.25C120.14 131.547 120.638 130.926 121.282 130.387C121.939 129.836 122.736 129.408 123.673 129.104C124.622 128.787 125.689 128.629 126.872 128.629C128.525 128.629 129.943 128.893 131.126 129.42C132.321 129.947 133.236 130.674 133.868 131.6C134.513 132.514 134.835 133.557 134.835 134.729H129.773C129.773 134.236 129.667 133.797 129.456 133.41C129.257 133.012 128.941 132.701 128.507 132.479C128.085 132.244 127.534 132.127 126.855 132.127C126.292 132.127 125.806 132.227 125.396 132.426C124.986 132.613 124.669 132.871 124.446 133.199C124.236 133.516 124.13 133.867 124.13 134.254C124.13 134.547 124.189 134.811 124.306 135.045C124.435 135.268 124.64 135.473 124.921 135.66C125.202 135.848 125.566 136.023 126.011 136.188C126.468 136.34 127.03 136.48 127.698 136.609C129.07 136.891 130.294 137.26 131.372 137.717C132.45 138.162 133.306 138.771 133.939 139.545C134.571 140.307 134.888 141.309 134.888 142.551C134.888 143.395 134.7 144.168 134.325 144.871C133.95 145.574 133.411 146.189 132.708 146.717C132.005 147.232 131.161 147.637 130.177 147.93C129.204 148.211 128.109 148.352 126.89 148.352C125.12 148.352 123.62 148.035 122.39 147.402C121.171 146.77 120.245 145.967 119.613 144.994C118.991 144.01 118.681 143.002 118.681 141.971H123.48C123.503 142.662 123.679 143.219 124.007 143.641C124.347 144.062 124.775 144.367 125.29 144.555C125.818 144.742 126.386 144.836 126.995 144.836C127.652 144.836 128.196 144.748 128.63 144.572C129.064 144.385 129.392 144.139 129.614 143.834C129.849 143.518 129.966 143.154 129.966 142.744ZM149.178 142.744C149.178 142.381 149.073 142.053 148.862 141.76C148.651 141.467 148.258 141.197 147.684 140.951C147.122 140.693 146.307 140.459 145.241 140.248C144.28 140.037 143.383 139.773 142.551 139.457C141.731 139.129 141.016 138.736 140.407 138.279C139.809 137.822 139.34 137.283 139 136.662C138.661 136.029 138.491 135.309 138.491 134.5C138.491 133.703 138.661 132.953 139 132.25C139.352 131.547 139.85 130.926 140.495 130.387C141.151 129.836 141.948 129.408 142.885 129.104C143.834 128.787 144.901 128.629 146.084 128.629C147.737 128.629 149.155 128.893 150.338 129.42C151.534 129.947 152.448 130.674 153.081 131.6C153.725 132.514 154.047 133.557 154.047 134.729H148.985C148.985 134.236 148.879 133.797 148.668 133.41C148.469 133.012 148.153 132.701 147.719 132.479C147.297 132.244 146.747 132.127 146.067 132.127C145.504 132.127 145.018 132.227 144.608 132.426C144.198 132.613 143.881 132.871 143.659 133.199C143.448 133.516 143.342 133.867 143.342 134.254C143.342 134.547 143.401 134.811 143.518 135.045C143.647 135.268 143.852 135.473 144.133 135.66C144.415 135.848 144.778 136.023 145.223 136.188C145.68 136.34 146.243 136.48 146.911 136.609C148.282 136.891 149.506 137.26 150.584 137.717C151.663 138.162 152.518 138.771 153.151 139.545C153.784 140.307 154.1 141.309 154.1 142.551C154.1 143.395 153.913 144.168 153.538 144.871C153.163 145.574 152.624 146.189 151.92 146.717C151.217 147.232 150.374 147.637 149.389 147.93C148.416 148.211 147.321 148.352 146.102 148.352C144.332 148.352 142.832 148.035 141.602 147.402C140.383 146.77 139.457 145.967 138.825 144.994C138.204 144.01 137.893 143.002 137.893 141.971H142.692C142.715 142.662 142.891 143.219 143.219 143.641C143.559 144.062 143.987 144.367 144.502 144.555C145.03 144.742 145.598 144.836 146.207 144.836C146.864 144.836 147.409 144.748 147.842 144.572C148.276 144.385 148.604 144.139 148.827 143.834C149.061 143.518 149.178 143.154 149.178 142.744Z" fill="white"/>
</svg>
