<svg xmlns="http://www.w3.org/2000/svg" aria-hidden="true" style="position:absolute;width:0;height:0;overflow:hidden">
  <defs>
    <symbol id="icon-astronaut-1" viewBox="0 0 32 32">
        <path d="M31.974 4.524a.534.534 0 0 0-.43-.363l-1.91-.278-.855-1.731c-.179-.365-.777-.365-.956 0l-.855 1.731-1.91.278a.535.535 0 0 0-.296.91l1.383 1.348-.326 1.903c-.034.2.048.402.212.522a.53.53 0 0 0 .562.04l1.709-.899 1.709.899a.536.536 0 0 0 .775-.563l-.326-1.903 1.383-1.348a.536.536 0 0 0 .135-.547zm-2.463 1.327a.534.534 0 0 0-.153.472l.191 1.114-1-.526a.533.533 0 0 0-.498 0l-1.001.526.191-1.114a.534.534 0 0 0-.153-.472l-.81-.789 1.119-.163a.532.532 0 0 0 .402-.292l.5-1.013.5 1.013a.535.535 0 0 0 .402.292l1.119.163-.809.789zM26.133 20.522h-1.067v1.067h1.067v-1.067zM26.133 22.656h-1.067v1.067h1.067v-1.067zM27.2 21.589h-1.067v1.067H27.2v-1.067zM25.067 21.589H24v1.067h1.067v-1.067zM22.4 26.389h-1.067v1.067H22.4v-1.067zM22.4 28.522h-1.067v1.067H22.4v-1.067zM23.467 27.456H22.4v1.067h1.067v-1.067zM21.333 27.456h-1.067v1.067h1.067v-1.067zM16 24.256h-1.067v1.067H16v-1.067zM16 26.389h-1.067v1.067H16v-1.067zM17.067 25.322H16v1.067h1.067v-1.067zM14.933 25.322h-1.067v1.067h1.067v-1.067zM5.867 6.122H4.8v1.067h1.067V6.122zM5.867 8.255H4.8v1.067h1.067V8.255z"/>
        <path d="M6.933 7.189H5.866v1.067h1.067V7.189zM4.8 7.189H3.733v1.067H4.8V7.189z"/>
        <path d="M24.715 14.159a1.775 1.775 0 0 0-1.188-.705 1.778 1.778 0 0 0-1.34.352l-1.252.96-1.898 1.417-1.358-.541c2.421-1.086 4.114-3.508 4.114-6.32 0-3.823-3.123-6.933-6.961-6.933s-6.961 3.11-6.961 6.933a6.86 6.86 0 0 0 1.12 3.758l-2.764-.024h-.005c-.009 0-.015.004-.023.005a.515.515 0 0 0-.155.031l-.038.013c-.006.003-.013.003-.019.006l-3.233 1.596-.001.001-1.893.911a.397.397 0 0 0-.063.035 1.779 1.779 0 0 0-.598 2.295c.22.429.595.745 1.056.889a1.776 1.776 0 0 0 1.378-.128l1.388-.738 2.264-1.169 1.357-.008L2.2 22.211l-.002.001-1.339 1.333c-.316.315-.49.732-.49 1.178s.174.863.49 1.179c.325.323.752.485 1.179.485s.854-.162 1.18-.485l1.314-1.309 1.741-1.3.901.897-1.762 1.754-.002.001-1.339 1.333c-.316.315-.49.732-.49 1.178s.174.863.49 1.179c.325.323.753.485 1.18.485s.855-.162 1.18-.485l3.482-3.467.001-.002 1.01-1-.004-.004c.006-.006.015-.009.022-.015l5.166-5.658 3.471.494a.52.52 0 0 0 .262-.033c.018-.006.033-.015.05-.023.019-.01.039-.015.058-.027l3.213-2.133c.012-.008.018-.021.029-.029.013-.01.029-.014.041-.026l1.271-1.191c.662-.62.753-1.635.212-2.362zM2.13 17.77a.714.714 0 0 1-.558.052.717.717 0 0 1-.213-1.26l1.314-.632.449 1.313-.992.527zm3.498-1.828-1.548.8-.439-1.283 2.027-1.001-.04 1.484zm15.099-6.62a5.79 5.79 0 0 1-.599 2.559l-4.181-1.899a1.863 1.863 0 0 0-.788-1.388l1.464-4.86c2.378.756 4.105 2.974 4.105 5.588zm-11.789 0c0-3.235 2.644-5.867 5.894-5.867.253 0 .5.021.745.052l-1.432 4.754c-.019-.001-.037-.006-.057-.006-1.033 0-1.873.837-1.873 1.867s.84 1.867 1.873 1.867c.694 0 1.294-.383 1.618-.945l3.862 1.755a5.894 5.894 0 0 1-4.737 2.39c-3.25 0-5.894-2.632-5.894-5.867zm5.956.8c0 .441-.362.8-.806.8s-.806-.359-.806-.8c0-.441.362-.8.806-.8s.806.359.806.8zM2.465 25.146a.608.608 0 0 1-.854.001.592.592 0 0 1 0-.844l.962-.958.851.848-.959.955zm3.214 3.734a.608.608 0 0 1-.855.001.592.592 0 0 1 0-.844l.963-.959.852.848-.96.955zm3.481-3.469-.002.001-1.765 1.76-.852-.848 1.763-1.755.002-.001c.04-.04.065-.088.09-.135.007-.014.02-.026.026-.04.017-.041.019-.085.026-.129.003-.025.014-.047.014-.073 0-.036-.013-.07-.02-.106-.006-.032-.006-.065-.019-.095a.55.55 0 0 0-.091-.138c-.01-.012-.014-.027-.025-.038h-.001l-.001-.002-1.607-1.6c-.017-.017-.039-.024-.058-.038a.507.507 0 0 0-.087-.058.515.515 0 0 0-.093-.033.507.507 0 0 0-.103-.02.5.5 0 0 0-.095.005.53.53 0 0 0-.104.02.477.477 0 0 0-.094.045c-.02.011-.042.015-.061.029L4.23 23.486l-.901-.897 2.399-2.386 4.361 4.289-.928.919zm6.819-7.017c-.015-.002-.03.004-.045.003a.556.556 0 0 0-.3.075.492.492 0 0 0-.083.061c-.013.011-.028.017-.04.029l-4.698 5.146-4.328-4.257 2.833-2.818a.534.534 0 0 0-.379-.911v-.001l-2.219.013.028-1.607 3.104.027a6.947 6.947 0 0 0 4.981 2.101c.437 0 .864-.045 1.279-.123.04.032.079.065.13.085l2.41.96.152.758.178.885-3.003-.427zm4.041.178-.313-1.558 1.446-1.08.947 1.257-2.08 1.381zm3.754-2.831-.838.785-.931-1.236.831-.637a.735.735 0 0 1 .543-.143.718.718 0 0 1 .48.284.713.713 0 0 1-.085.947z"/>
        <path d="m13.602 18.544-2.143-2.133a.534.534 0 0 0-.753 0l-2.142 2.133a.537.537 0 0 0 0 .756l2.142 2.133a.536.536 0 0 0 .753 0l2.143-2.133a.535.535 0 0 0 0-.756zm-2.519 1.759-1.387-1.381 1.387-1.381 1.387 1.381-1.387 1.381zM17.164 5.071l-.258 1.036c.071.018 1.738.452 1.738 2.149h1.067c0-2.017-1.666-2.965-2.547-3.185zM19.711 9.322h-1.067v1.067h1.067V9.322z"/>
    </symbol>
    <symbol id="icon-diagram-1" viewBox="0 0 32 32">
        <path d="M14.925 14.965h1.066v4.798h-1.066v-4.797zM19.19 17.097h1.066v2.665H19.19v-2.665zM10.661 18.696h1.066v1.066h-1.066v-1.066zM7.463 18.163h1.066v1.599H7.463v-1.599z"/>
        <path d="M1.599 28.291h25.587a1.6 1.6 0 0 0 1.599-1.599V24.56a1.6 1.6 0 0 0-1.599-1.599h-.533V9.668L29.681 6.8a1.608 1.608 0 1 0-.746-.763L26.654 8.2V6.97a1.6 1.6 0 0 0-1.599-1.599H3.733A1.6 1.6 0 0 0 2.134 6.97v15.992h-.533a1.6 1.6 0 0 0-1.599 1.599v2.132a1.6 1.6 0 0 0 1.599 1.599zM30.384 4.837a.533.533 0 1 1 0 1.067.533.533 0 0 1 0-1.067zM3.198 6.969c0-.294.239-.533.533-.533h21.322c.294 0 .533.239.533.533v2.239l-1.066 1.013V8.035a.533.533 0 0 0-.533-.533H4.797a.533.533 0 0 0-.533.533v13.326c0 .294.239.533.533.533h19.19a.533.533 0 0 0 .533-.533v-9.674l1.066-1.01v12.284H3.198V6.969zm4.798 6.93a1.598 1.598 0 1 0 1.107 2.749l1.853.93a.532.532 0 0 0 .636-.123l3.939-4.431 3.872 2.901a.533.533 0 0 0 .686-.039l3.365-3.188v8.131H5.33V8.569h18.124v2.66l-3.771 3.572-3.904-2.927a.533.533 0 0 0-.718.072l-3.993 4.493-1.493-.746c.011-.064.018-.129.02-.193a1.6 1.6 0 0 0-1.599-1.599zm.533 1.599a.533.533 0 1 1-1.067 0 .533.533 0 0 1 1.067 0zm3.198 8.529h5.331v.533a.533.533 0 0 1-.533.533h-4.264a.533.533 0 0 1-.533-.533v-.533zm-10.661.533c0-.294.239-.533.533-.533h9.062v.533a1.6 1.6 0 0 0 1.599 1.599h4.264a1.6 1.6 0 0 0 1.599-1.599v-.533h9.062c.294 0 .533.239.533.533v2.132a.533.533 0 0 1-.533.533H1.598a.533.533 0 0 1-.533-.533V24.56z"/>
    </symbol>
    <symbol id="icon-clock-1" viewBox="0 0 32 32">
        <path d="M31.297 15.301C31.295 6.849 24.442-.002 15.989 0S.686 6.855.688 15.308a15.304 15.304 0 0 0 10.649 14.576.662.662 0 0 0 .529-.065.637.637 0 0 0 .283-.356l3.865-12.25a1.912 1.912 0 1 0-.84-3.635l-5.106-5.107a.637.637 0 0 0-.902.902l5.103 5.109a1.876 1.876 0 0 0 .536 2.309l-3.683 11.673C3.844 25.783.118 17.71 2.799 10.432S13.553-.572 20.831 2.109c7.278 2.681 11.004 10.754 8.323 18.032a14.042 14.042 0 0 1-7.462 7.973l-.398-1.874a.637.637 0 0 0-1.049-.344l-3.837 3.426a.637.637 0 0 0 .231 1.084l4.899 1.564a.638.638 0 0 0 .819-.74l-.391-1.839a15.255 15.255 0 0 0 9.329-14.089zm-15.305-.637a.638.638 0 1 1 0 1.277.638.638 0 0 1 0-1.277zm2.101 14.864 2.184-1.948.603 2.84-2.787-.892z"/>
        <path d="M15.354 3.185V4.46a.638.638 0 1 0 1.276 0V3.185a.638.638 0 0 0-1.276 0zM3.876 14.664a.638.638 0 0 0 0 1.276h1.275a.638.638 0 1 0 0-1.276H3.876zM28.108 15.939a.638.638 0 1 0 0-1.276h-1.275a.638.638 0 0 0 0 1.276h1.275z"/>
    </symbol>
    <symbol id="icon-antenna-1" viewBox="0 0 32 32">
        <path d="m30.773 22.098-8.443-8.505.937-4.615c.242.094.499.144.758.146h.006a2.159 2.159 0 1 0-2.008-1.435l-4.96.605L8.972.161a.534.534 0 0 0-.377-.16.532.532 0 0 0-.373.155L6.709 1.66a.534.534 0 0 0 0 .754l.814.826a14.943 14.943 0 0 0 2.519 17.663.513.513 0 0 0 .146.098c-.034.18-.051.364-.052.547v6.187h-6.4a2.67 2.67 0 0 0-2.667 2.667v1.067c0 .295.239.533.533.533h24.533a.533.533 0 0 0 .533-.533v-1.067a2.67 2.67 0 0 0-2.667-2.667h-6.4v-2.742a15.09 15.09 0 0 0 3.049.32 14.854 14.854 0 0 0 7.04-1.783l.818.823a.534.534 0 0 0 .377.16.532.532 0 0 0 .373-.155l1.513-1.504a.534.534 0 0 0 0-.754zM23.28 6.233a1.067 1.067 0 1 1 .753 1.822h-.003a1.067 1.067 0 0 1-.747-1.823h-.002zm-1.256 3.505-.598 2.946-1.175-1.182 1.774-1.763zm-.605-.902-1.92 1.909-1.485-1.493 3.405-.415zM24.004 28.8a1.6 1.6 0 0 1 1.6 1.6v.533H2.137V30.4a1.6 1.6 0 0 1 1.6-1.6h20.267zm-7.467-2.133v1.067h-5.333v-1.067h5.333zM11.204 25.6v-4.053c0-1.294 1.196-2.347 2.667-2.347s2.667 1.053 2.667 2.347V25.6h-5.333zm6.4-1.696v-2.357c0-1.882-1.675-3.413-3.733-3.413a3.8 3.8 0 0 0-3.281 1.786A13.87 13.87 0 0 1 8.311 4.033l18.602 18.708a13.818 13.818 0 0 1-9.309 1.163zm11.289-.684L7.836 2.039l.755-.752 7.935 7.98c.004 0 .006.007.01.01l13.115 13.191-.757.752z"/>
        <path d="M13.876 20.267h-.005a1.6 1.6 0 1 0-.004 3.2h.005a1.6 1.6 0 1 0 .004-3.2zm.373 1.978a.534.534 0 0 1-.752-.756.534.534 0 0 1 .373-.155.534.534 0 0 1 .374.911h.005z"/>
<symbol id="icon-cros" viewBox="0 0 32 32">
<path d="M32 3.223l-3.223-3.223-12.777 12.777-12.777-12.777-3.223 3.223 12.777 12.777-12.777 12.777 3.223 3.223 12.777-12.777 12.777 12.777 3.223-3.223-12.777-12.777 12.777-12.777z"></path>
</symbol>
    
    </symbol>

    <symbol id="icon-email-black" viewBox="0 0 24 32">
        <path d="M20 8h-16c-1.1 0-1.99 0.9-1.99 2l-0.010 12c0 1.1 0.9 2 2 2h16c1.1 0 2-0.9 2-2v-12c0-1.1-0.9-2-2-2zM19.6 12.25l-7.070 4.42c-0.32 0.2-0.74 0.2-1.060 0l-7.070-4.42c-0.25-0.16-0.4-0.43-0.4-0.72 0-0.67 0.73-1.070 1.3-0.72l6.7 4.19 6.7-4.19c0.57-0.35 1.3 0.050 1.3 0.72 0 0.29-0.15 0.56-0.4 0.72z"></path>
    </symbol>
    <symbol id="icon-phone-black" viewBox="0 0 24 32">
        <path d="M19.635 18.487l-2.451-0.28c-0.589-0.067-1.167 0.135-1.582 0.55l-1.775 1.775c-2.731-1.389-4.969-3.618-6.359-6.359l1.785-1.785c0.415-0.415 0.618-0.994 0.55-1.582l-0.28-2.432c-0.116-0.975-0.936-1.708-1.92-1.708h-1.669c-1.090 0-1.997 0.907-1.93 1.997 0.511 8.24 7.102 14.821 15.332 15.332 1.090 0.068 1.997-0.839 1.997-1.93v-1.669c0.010-0.975-0.724-1.795-1.698-1.911z"></path>
    </symbol>
    <symbol id="icon-person-black" viewBox="0 0 32 32">
<path d="M16 16c2.947 0 5.333-2.387 5.333-5.333s-2.387-5.333-5.333-5.333c-2.947 0-5.333 2.387-5.333 5.333s2.387 5.333 5.333 5.333zM16 18.667c-3.56 0-10.667 1.787-10.667 5.333v1.333c0 0.733 0.6 1.333 1.333 1.333h18.667c0.733 0 1.333-0.6 1.333-1.333v-1.333c0-3.547-7.107-5.333-10.667-5.333z"></path>
</symbol>
<symbol id="icon-Vector" viewBox="0 0 40 32">
<path d="M33.782 1.020c0.691-0.662 1.611-1.027 2.565-1.020s1.869 0.387 2.55 1.059c0.681 0.672 1.076 1.584 1.101 2.543s-0.321 1.891-0.966 2.598l-19.578 24.617c-0.337 0.365-0.743 0.657-1.195 0.86s-0.939 0.312-1.434 0.322c-0.495 0.009-0.986-0.082-1.445-0.268s-0.876-0.463-1.226-0.815l-12.984-13.054c-0.362-0.339-0.652-0.747-0.853-1.201s-0.309-0.944-0.318-1.441 0.082-0.99 0.267-1.451c0.185-0.461 0.461-0.879 0.81-1.231s0.766-0.628 1.224-0.814 0.949-0.277 1.443-0.269c0.494 0.009 0.981 0.118 1.433 0.32s0.858 0.494 1.195 0.857l10.275 10.325 17.042-21.83c0.031-0.038 0.063-0.074 0.098-0.109h-0.005z"></path>
</symbol>
<symbol id="icon-Frame" viewBox="0 0 32 32">
<path fill="#fff" style="fill: var(--color1, #fff)" d="M32 2.667l-32 15 10.227 3.156 15.773-12.323-11.998 13.488 0.010 0.003-0.012-0.003v7.345l5.735-5.576 7.265 2.242 5-23.333z"></path>
</symbol>
<symbol id="icon-Effective-Solutions-for-Your-Business" viewBox="0 0 34 32">
<path d="M5.126 5.13v0.883h-2.926v-0.883h2.926zM2.571 0.517v5.497h-1.133v-5.497h1.133zM4.745 2.755v0.861h-2.544v-0.861h2.544zM5.123 0.517v0.887h-2.922v-0.887h2.922zM7.191 6.013h-1.095v-4.447c0-0.31 0.060-0.57 0.181-0.781 0.123-0.214 0.296-0.375 0.517-0.483 0.224-0.111 0.489-0.166 0.797-0.166 0.101 0 0.198 0.008 0.291 0.023 0.093 0.013 0.184 0.029 0.272 0.049l-0.011 0.819c-0.048-0.013-0.098-0.021-0.151-0.026s-0.114-0.008-0.185-0.008c-0.131 0-0.243 0.023-0.336 0.068-0.091 0.043-0.16 0.107-0.208 0.193s-0.072 0.19-0.072 0.313v4.447zM8.007 1.929v0.77h-2.518v-0.77h2.518zM10.117 6.013h-1.095v-4.447c0-0.31 0.060-0.57 0.181-0.781 0.123-0.214 0.296-0.375 0.517-0.483 0.224-0.111 0.489-0.166 0.797-0.166 0.101 0 0.198 0.008 0.291 0.023 0.093 0.013 0.184 0.029 0.272 0.049l-0.011 0.819c-0.048-0.013-0.098-0.021-0.151-0.026s-0.114-0.008-0.185-0.008c-0.131 0-0.243 0.023-0.336 0.068-0.091 0.043-0.16 0.107-0.208 0.193s-0.072 0.19-0.072 0.313v4.447zM10.932 1.929v0.77h-2.518v-0.77h2.518zM13.446 6.089c-0.317 0-0.601-0.050-0.853-0.151-0.252-0.103-0.466-0.245-0.642-0.427-0.174-0.181-0.307-0.391-0.4-0.63-0.093-0.242-0.14-0.498-0.14-0.77v-0.151c0-0.31 0.044-0.593 0.132-0.849s0.214-0.479 0.377-0.668c0.166-0.189 0.367-0.333 0.604-0.434 0.237-0.103 0.503-0.155 0.8-0.155 0.289 0 0.546 0.048 0.77 0.143s0.412 0.232 0.563 0.408c0.154 0.176 0.269 0.388 0.347 0.634 0.078 0.244 0.117 0.516 0.117 0.815v0.453h-3.247v-0.725h2.178v-0.083c0-0.151-0.028-0.286-0.083-0.404-0.053-0.121-0.133-0.216-0.242-0.287s-0.247-0.106-0.415-0.106c-0.143 0-0.267 0.031-0.37 0.094s-0.188 0.151-0.253 0.264c-0.063 0.113-0.111 0.247-0.143 0.4-0.030 0.151-0.045 0.317-0.045 0.498v0.151c0 0.164 0.023 0.315 0.068 0.453 0.048 0.138 0.114 0.258 0.2 0.359 0.088 0.101 0.194 0.179 0.317 0.234 0.126 0.055 0.268 0.083 0.427 0.083 0.196 0 0.379-0.038 0.547-0.113 0.171-0.078 0.318-0.195 0.442-0.351l0.529 0.574c-0.086 0.123-0.203 0.242-0.351 0.355-0.146 0.113-0.322 0.206-0.528 0.279-0.206 0.070-0.442 0.106-0.706 0.106zM17.584 5.24c0.133 0 0.252-0.025 0.355-0.075 0.103-0.053 0.184-0.126 0.242-0.219 0.060-0.096 0.092-0.208 0.094-0.336h1.023c-0.003 0.287-0.079 0.542-0.23 0.766-0.151 0.221-0.354 0.396-0.608 0.525-0.254 0.126-0.539 0.189-0.853 0.189-0.317 0-0.594-0.053-0.831-0.159-0.234-0.106-0.429-0.252-0.585-0.438-0.156-0.189-0.273-0.408-0.351-0.657-0.078-0.252-0.117-0.521-0.117-0.808v-0.11c0-0.289 0.039-0.559 0.117-0.808 0.078-0.252 0.195-0.471 0.351-0.657 0.156-0.189 0.351-0.336 0.585-0.442s0.508-0.159 0.823-0.159c0.335 0 0.628 0.064 0.88 0.193 0.254 0.128 0.453 0.312 0.596 0.551 0.146 0.237 0.22 0.517 0.223 0.842h-1.023c-0.003-0.136-0.031-0.259-0.087-0.37-0.053-0.111-0.131-0.199-0.234-0.264-0.101-0.068-0.225-0.102-0.374-0.102-0.159 0-0.288 0.034-0.389 0.102-0.101 0.065-0.179 0.156-0.234 0.272-0.055 0.113-0.094 0.243-0.117 0.389-0.020 0.143-0.030 0.294-0.030 0.453v0.109c0 0.159 0.010 0.311 0.030 0.457s0.058 0.276 0.113 0.389c0.058 0.113 0.137 0.203 0.238 0.268s0.232 0.098 0.393 0.098zM22.084 1.929v0.77h-2.378v-0.77h2.378zM20.294 0.921h1.087v3.862c0 0.118 0.015 0.209 0.045 0.272 0.033 0.063 0.081 0.107 0.143 0.132 0.063 0.023 0.142 0.034 0.238 0.034 0.068 0 0.128-0.003 0.181-0.008 0.055-0.008 0.102-0.015 0.14-0.023l0.004 0.8c-0.093 0.030-0.194 0.054-0.302 0.072s-0.228 0.026-0.359 0.026c-0.239 0-0.448-0.039-0.627-0.117-0.176-0.081-0.312-0.209-0.408-0.385s-0.143-0.408-0.143-0.695v-3.971zM24.005 1.929v4.085h-1.091v-4.085h1.091zM22.846 0.864c0-0.159 0.055-0.289 0.166-0.393s0.259-0.155 0.446-0.155c0.184 0 0.331 0.052 0.442 0.155 0.113 0.103 0.17 0.234 0.17 0.393s-0.056 0.289-0.17 0.393c-0.111 0.103-0.258 0.155-0.442 0.155-0.186 0-0.335-0.052-0.446-0.155s-0.166-0.234-0.166-0.393zM26.447 5.221l0.906-3.292h1.136l-1.378 4.085h-0.687l0.023-0.793zM25.824 1.929l0.91 3.296 0.019 0.789h-0.691l-1.378-4.085h1.14zM30.959 6.089c-0.317 0-0.602-0.050-0.853-0.151-0.252-0.103-0.466-0.245-0.642-0.427-0.174-0.181-0.307-0.391-0.4-0.63-0.093-0.242-0.14-0.498-0.14-0.77v-0.151c0-0.31 0.044-0.593 0.132-0.849s0.214-0.479 0.378-0.668c0.166-0.189 0.367-0.333 0.604-0.434 0.236-0.103 0.503-0.155 0.8-0.155 0.29 0 0.546 0.048 0.77 0.143s0.412 0.232 0.562 0.408c0.154 0.176 0.269 0.388 0.347 0.634 0.078 0.244 0.117 0.516 0.117 0.815v0.453h-3.247v-0.725h2.178v-0.083c0-0.151-0.028-0.286-0.083-0.404-0.053-0.121-0.133-0.216-0.242-0.287s-0.247-0.106-0.415-0.106c-0.143 0-0.267 0.031-0.37 0.094s-0.188 0.151-0.253 0.264c-0.063 0.113-0.111 0.247-0.143 0.4-0.030 0.151-0.045 0.317-0.045 0.498v0.151c0 0.164 0.023 0.315 0.068 0.453 0.048 0.138 0.114 0.258 0.2 0.359 0.088 0.101 0.194 0.179 0.317 0.234 0.126 0.055 0.268 0.083 0.427 0.083 0.196 0 0.379-0.038 0.547-0.113 0.171-0.078 0.319-0.195 0.442-0.351l0.529 0.574c-0.086 0.123-0.203 0.242-0.351 0.355-0.146 0.113-0.322 0.206-0.529 0.279-0.206 0.070-0.442 0.106-0.706 0.106zM3.278 13.166c0-0.098-0.015-0.186-0.045-0.264-0.028-0.081-0.081-0.154-0.159-0.219-0.078-0.068-0.188-0.135-0.328-0.2s-0.323-0.133-0.547-0.204c-0.249-0.081-0.486-0.171-0.71-0.272-0.221-0.101-0.418-0.218-0.589-0.351-0.169-0.136-0.302-0.293-0.4-0.472-0.096-0.179-0.143-0.386-0.143-0.623 0-0.229 0.050-0.437 0.151-0.623 0.101-0.189 0.242-0.35 0.423-0.483 0.181-0.136 0.395-0.24 0.642-0.313 0.249-0.073 0.522-0.11 0.819-0.11 0.405 0 0.759 0.073 1.061 0.219s0.536 0.346 0.702 0.6c0.169 0.254 0.253 0.545 0.253 0.872h-1.125c0-0.161-0.034-0.302-0.102-0.423-0.065-0.123-0.166-0.22-0.302-0.291-0.133-0.070-0.302-0.106-0.506-0.106-0.196 0-0.36 0.030-0.491 0.091-0.131 0.058-0.229 0.137-0.294 0.238-0.065 0.098-0.098 0.209-0.098 0.332 0 0.093 0.023 0.177 0.068 0.253 0.048 0.075 0.118 0.146 0.211 0.211s0.208 0.127 0.344 0.185c0.136 0.058 0.293 0.114 0.472 0.17 0.3 0.091 0.563 0.193 0.789 0.306 0.229 0.113 0.42 0.24 0.574 0.381s0.269 0.301 0.347 0.479c0.078 0.179 0.117 0.381 0.117 0.608 0 0.239-0.047 0.453-0.14 0.642s-0.228 0.349-0.404 0.479c-0.176 0.131-0.386 0.23-0.63 0.298s-0.517 0.102-0.819 0.102c-0.272 0-0.54-0.035-0.804-0.106-0.264-0.073-0.505-0.182-0.721-0.328-0.214-0.146-0.385-0.332-0.513-0.559s-0.193-0.495-0.193-0.804h1.136c0 0.171 0.026 0.316 0.079 0.434s0.127 0.214 0.223 0.287c0.098 0.073 0.214 0.126 0.347 0.159 0.136 0.033 0.284 0.049 0.445 0.049 0.196 0 0.357-0.028 0.483-0.083 0.128-0.055 0.223-0.132 0.283-0.23 0.063-0.098 0.094-0.209 0.094-0.332zM5.094 12.603v-0.079c0-0.3 0.043-0.575 0.128-0.827 0.086-0.254 0.21-0.474 0.374-0.661s0.365-0.331 0.604-0.434c0.239-0.106 0.513-0.159 0.823-0.159s0.585 0.053 0.827 0.159c0.242 0.103 0.444 0.248 0.608 0.434 0.166 0.186 0.292 0.406 0.377 0.661 0.086 0.252 0.128 0.527 0.128 0.827v0.079c0 0.297-0.043 0.573-0.128 0.827-0.086 0.252-0.211 0.472-0.377 0.661-0.164 0.186-0.365 0.331-0.604 0.434s-0.513 0.155-0.823 0.155c-0.31 0-0.585-0.052-0.827-0.155-0.239-0.103-0.442-0.248-0.608-0.434-0.164-0.189-0.288-0.409-0.374-0.661-0.086-0.254-0.128-0.53-0.128-0.827zM6.181 12.524v0.079c0 0.171 0.015 0.331 0.045 0.479s0.078 0.279 0.143 0.393c0.068 0.111 0.156 0.198 0.264 0.261s0.24 0.094 0.396 0.094c0.151 0 0.281-0.031 0.389-0.094s0.195-0.15 0.261-0.261c0.065-0.113 0.113-0.244 0.143-0.393 0.033-0.149 0.049-0.308 0.049-0.479v-0.079c0-0.166-0.016-0.322-0.049-0.468-0.030-0.149-0.079-0.279-0.147-0.393-0.065-0.116-0.152-0.206-0.26-0.272s-0.239-0.098-0.393-0.098c-0.154 0-0.284 0.033-0.393 0.098-0.106 0.065-0.193 0.156-0.261 0.272-0.065 0.113-0.113 0.244-0.143 0.393-0.030 0.146-0.045 0.302-0.045 0.468zM10.934 8.805v5.799h-1.091v-5.799h1.091zM14.403 13.626v-3.107h1.087v4.085h-1.023l-0.064-0.978zM14.524 12.788l0.321-0.008c0 0.272-0.031 0.525-0.094 0.759-0.063 0.232-0.157 0.433-0.283 0.604-0.126 0.169-0.284 0.301-0.476 0.396-0.191 0.093-0.416 0.14-0.676 0.14-0.199 0-0.383-0.028-0.551-0.083-0.166-0.058-0.31-0.147-0.43-0.268-0.118-0.123-0.211-0.281-0.279-0.472-0.065-0.194-0.098-0.427-0.098-0.698v-2.639h1.087v2.646c0 0.121 0.014 0.223 0.042 0.306 0.030 0.083 0.072 0.151 0.125 0.204s0.114 0.091 0.185 0.113c0.073 0.023 0.153 0.034 0.242 0.034 0.224 0 0.4-0.045 0.528-0.136 0.131-0.091 0.223-0.214 0.276-0.37 0.055-0.159 0.083-0.335 0.083-0.529zM18.477 10.519v0.77h-2.378v-0.77h2.378zM16.687 9.511h1.087v3.862c0 0.118 0.015 0.209 0.045 0.272 0.033 0.063 0.081 0.107 0.143 0.132 0.063 0.023 0.142 0.034 0.238 0.034 0.068 0 0.128-0.002 0.181-0.008 0.055-0.008 0.102-0.015 0.14-0.023l0.004 0.8c-0.093 0.030-0.194 0.054-0.302 0.072s-0.228 0.026-0.359 0.026c-0.239 0-0.448-0.039-0.627-0.117-0.176-0.081-0.312-0.209-0.408-0.385s-0.143-0.408-0.143-0.695v-3.971zM20.398 10.519v4.085h-1.091v-4.085h1.091zM19.239 9.455c0-0.159 0.055-0.289 0.166-0.393s0.259-0.155 0.445-0.155c0.184 0 0.331 0.052 0.442 0.155 0.113 0.103 0.17 0.234 0.17 0.393s-0.057 0.289-0.17 0.393c-0.111 0.103-0.258 0.155-0.442 0.155-0.186 0-0.335-0.052-0.445-0.155s-0.166-0.234-0.166-0.393zM21.277 12.603v-0.079c0-0.3 0.043-0.575 0.128-0.827 0.086-0.254 0.21-0.474 0.374-0.661s0.365-0.331 0.604-0.434c0.239-0.106 0.514-0.159 0.823-0.159s0.585 0.053 0.827 0.159c0.242 0.103 0.444 0.248 0.608 0.434 0.166 0.186 0.292 0.406 0.378 0.661 0.085 0.252 0.128 0.527 0.128 0.827v0.079c0 0.297-0.043 0.573-0.128 0.827-0.086 0.252-0.212 0.472-0.378 0.661-0.164 0.186-0.365 0.331-0.604 0.434s-0.513 0.155-0.823 0.155c-0.309 0-0.585-0.052-0.827-0.155-0.239-0.103-0.442-0.248-0.608-0.434-0.164-0.189-0.288-0.409-0.374-0.661-0.086-0.254-0.128-0.53-0.128-0.827zM22.365 12.524v0.079c0 0.171 0.015 0.331 0.045 0.479s0.078 0.279 0.143 0.393c0.068 0.111 0.156 0.198 0.264 0.261s0.24 0.094 0.396 0.094c0.151 0 0.281-0.031 0.389-0.094s0.195-0.15 0.261-0.261c0.066-0.113 0.113-0.244 0.143-0.393 0.033-0.149 0.049-0.308 0.049-0.479v-0.079c0-0.166-0.016-0.322-0.049-0.468-0.030-0.149-0.079-0.279-0.147-0.393-0.065-0.116-0.152-0.206-0.261-0.272s-0.239-0.098-0.393-0.098c-0.154 0-0.284 0.033-0.393 0.098-0.106 0.065-0.192 0.156-0.261 0.272-0.065 0.113-0.113 0.244-0.143 0.393-0.030 0.146-0.045 0.302-0.045 0.468zM27.034 11.391v3.213h-1.087v-4.085h1.019l0.068 0.872zM26.876 12.418h-0.294c0-0.302 0.039-0.574 0.117-0.815 0.078-0.244 0.188-0.452 0.329-0.623 0.141-0.174 0.308-0.306 0.502-0.396 0.197-0.093 0.415-0.14 0.657-0.14 0.191 0 0.366 0.028 0.525 0.083s0.295 0.143 0.408 0.264c0.116 0.121 0.204 0.281 0.264 0.479 0.063 0.199 0.095 0.442 0.095 0.729v2.605h-1.095v-2.609c0-0.181-0.025-0.322-0.075-0.423s-0.125-0.171-0.223-0.211c-0.096-0.043-0.214-0.064-0.355-0.064-0.146 0-0.273 0.029-0.381 0.087-0.106 0.058-0.194 0.138-0.264 0.242-0.068 0.101-0.119 0.219-0.155 0.355s-0.053 0.282-0.053 0.438zM32.667 13.475c0-0.078-0.023-0.149-0.068-0.211s-0.13-0.121-0.253-0.174c-0.121-0.055-0.296-0.106-0.525-0.151-0.206-0.045-0.399-0.102-0.578-0.17-0.176-0.070-0.33-0.155-0.461-0.253-0.128-0.098-0.229-0.214-0.302-0.347-0.073-0.136-0.11-0.291-0.11-0.464 0-0.171 0.037-0.332 0.11-0.483 0.075-0.151 0.182-0.284 0.321-0.4 0.141-0.118 0.312-0.21 0.514-0.276 0.204-0.068 0.433-0.102 0.687-0.102 0.355 0 0.659 0.057 0.914 0.17 0.257 0.113 0.453 0.269 0.589 0.468 0.138 0.196 0.208 0.42 0.208 0.672h-1.087c0-0.106-0.023-0.2-0.068-0.283-0.043-0.086-0.111-0.152-0.204-0.2-0.091-0.050-0.209-0.075-0.355-0.075-0.121 0-0.225 0.021-0.313 0.064-0.088 0.040-0.156 0.096-0.204 0.166-0.045 0.068-0.068 0.143-0.068 0.226 0 0.063 0.012 0.12 0.038 0.17 0.028 0.048 0.072 0.092 0.132 0.132s0.138 0.078 0.234 0.113c0.098 0.033 0.219 0.063 0.362 0.091 0.294 0.060 0.558 0.14 0.789 0.238 0.232 0.096 0.415 0.226 0.551 0.393 0.136 0.164 0.204 0.379 0.204 0.646 0 0.181-0.040 0.347-0.121 0.498s-0.196 0.283-0.347 0.396c-0.151 0.111-0.332 0.198-0.544 0.261-0.209 0.060-0.444 0.091-0.706 0.091-0.38 0-0.702-0.068-0.966-0.204-0.262-0.136-0.46-0.308-0.596-0.517-0.133-0.211-0.2-0.428-0.2-0.649h1.031c0.005 0.149 0.043 0.268 0.113 0.359 0.073 0.091 0.165 0.156 0.276 0.196 0.113 0.040 0.235 0.060 0.366 0.060 0.141 0 0.258-0.019 0.351-0.057 0.093-0.040 0.163-0.093 0.211-0.159 0.050-0.068 0.076-0.146 0.076-0.234zM3.297 17.698v5.497h-1.133v-5.497h1.133zM5.487 20.046v0.883h-2.499v-0.883h2.499zM5.751 17.698v0.887h-2.763v-0.887h2.763zM6.238 21.194v-0.079c0-0.299 0.043-0.575 0.128-0.827 0.086-0.254 0.21-0.474 0.374-0.661s0.365-0.331 0.604-0.434c0.239-0.106 0.513-0.159 0.823-0.159s0.585 0.053 0.827 0.159c0.242 0.103 0.444 0.248 0.608 0.434 0.166 0.186 0.292 0.406 0.377 0.661 0.086 0.252 0.128 0.527 0.128 0.827v0.079c0 0.297-0.043 0.573-0.128 0.827-0.086 0.252-0.211 0.472-0.377 0.661-0.164 0.186-0.365 0.331-0.604 0.434s-0.513 0.155-0.823 0.155-0.585-0.052-0.827-0.155c-0.239-0.103-0.442-0.248-0.608-0.434-0.164-0.189-0.288-0.409-0.374-0.661-0.086-0.254-0.128-0.53-0.128-0.827zM7.325 21.115v0.079c0 0.171 0.015 0.331 0.045 0.479s0.078 0.279 0.143 0.393c0.068 0.111 0.156 0.198 0.264 0.261s0.24 0.094 0.396 0.094c0.151 0 0.281-0.031 0.389-0.094s0.195-0.15 0.261-0.261c0.065-0.113 0.113-0.244 0.143-0.393 0.033-0.148 0.049-0.308 0.049-0.479v-0.079c0-0.166-0.016-0.322-0.049-0.468-0.030-0.148-0.079-0.279-0.147-0.393-0.065-0.116-0.152-0.206-0.261-0.272s-0.239-0.098-0.393-0.098c-0.153 0-0.284 0.033-0.393 0.098-0.106 0.065-0.193 0.156-0.261 0.272-0.065 0.113-0.113 0.244-0.143 0.393-0.030 0.146-0.045 0.302-0.045 0.468zM12.018 20.001v3.194h-1.087v-4.085h1.023l0.064 0.891zM13.248 19.083l-0.019 1.008c-0.053-0.008-0.117-0.014-0.193-0.019-0.073-0.008-0.14-0.011-0.2-0.011-0.153 0-0.287 0.020-0.4 0.060-0.111 0.038-0.204 0.094-0.279 0.17-0.073 0.076-0.128 0.167-0.166 0.276-0.035 0.108-0.055 0.232-0.060 0.37l-0.219-0.068c0-0.264 0.026-0.507 0.079-0.729 0.053-0.224 0.13-0.419 0.23-0.585 0.103-0.166 0.229-0.294 0.377-0.385s0.318-0.136 0.51-0.136c0.060 0 0.122 0.005 0.185 0.015 0.063 0.008 0.115 0.019 0.155 0.034zM16.819 17.698l1.148 2.507 1.148-2.507h1.234l-1.808 3.496v2.001h-1.148v-2.001l-1.812-3.496h1.238zM20.515 21.194v-0.079c0-0.299 0.043-0.575 0.128-0.827 0.086-0.254 0.21-0.474 0.374-0.661s0.365-0.331 0.604-0.434c0.239-0.106 0.514-0.159 0.823-0.159s0.585 0.053 0.827 0.159c0.242 0.103 0.444 0.248 0.608 0.434 0.166 0.186 0.292 0.406 0.378 0.661 0.085 0.252 0.128 0.527 0.128 0.827v0.079c0 0.297-0.043 0.573-0.128 0.827-0.086 0.252-0.212 0.472-0.378 0.661-0.164 0.186-0.365 0.331-0.604 0.434s-0.513 0.155-0.823 0.155c-0.309 0-0.585-0.052-0.827-0.155-0.239-0.103-0.442-0.248-0.608-0.434-0.164-0.189-0.288-0.409-0.374-0.661-0.086-0.254-0.128-0.53-0.128-0.827zM21.602 21.115v0.079c0 0.171 0.015 0.331 0.045 0.479s0.078 0.279 0.143 0.393c0.068 0.111 0.156 0.198 0.264 0.261s0.24 0.094 0.396 0.094c0.151 0 0.281-0.031 0.389-0.094s0.195-0.15 0.261-0.261c0.065-0.113 0.113-0.244 0.143-0.393 0.033-0.148 0.049-0.308 0.049-0.479v-0.079c0-0.166-0.016-0.322-0.049-0.468-0.030-0.148-0.079-0.279-0.147-0.393-0.066-0.116-0.152-0.206-0.261-0.272s-0.239-0.098-0.393-0.098c-0.154 0-0.284 0.033-0.393 0.098-0.106 0.065-0.192 0.156-0.261 0.272-0.066 0.113-0.113 0.244-0.143 0.393-0.030 0.146-0.045 0.302-0.045 0.468zM27.624 22.217v-3.107h1.087v4.085h-1.023l-0.064-0.978zM27.744 21.379l0.321-0.008c0 0.272-0.031 0.525-0.094 0.759-0.063 0.232-0.157 0.433-0.283 0.604-0.126 0.169-0.284 0.301-0.476 0.396-0.191 0.093-0.417 0.14-0.676 0.14-0.199 0-0.383-0.028-0.551-0.083-0.166-0.058-0.31-0.147-0.43-0.268-0.118-0.123-0.212-0.281-0.279-0.472-0.066-0.194-0.098-0.427-0.098-0.698v-2.639h1.087v2.646c0 0.121 0.014 0.223 0.041 0.306 0.030 0.083 0.072 0.151 0.125 0.204s0.114 0.091 0.185 0.113c0.073 0.023 0.154 0.034 0.242 0.034 0.224 0 0.4-0.045 0.529-0.136 0.131-0.091 0.223-0.214 0.276-0.37 0.055-0.159 0.083-0.335 0.083-0.529zM30.783 20.001v3.194h-1.087v-4.085h1.023l0.064 0.891zM32.014 19.083l-0.019 1.008c-0.053-0.008-0.117-0.014-0.192-0.019-0.073-0.008-0.14-0.011-0.2-0.011-0.154 0-0.287 0.020-0.4 0.060-0.111 0.038-0.204 0.094-0.279 0.17-0.073 0.076-0.128 0.167-0.166 0.276-0.035 0.108-0.055 0.232-0.060 0.37l-0.219-0.068c0-0.264 0.026-0.507 0.079-0.729 0.053-0.224 0.13-0.419 0.23-0.585 0.103-0.166 0.229-0.294 0.378-0.385s0.319-0.136 0.51-0.136c0.061 0 0.122 0.005 0.185 0.015 0.063 0.008 0.114 0.019 0.155 0.034zM3.197 29.373h-1.412l-0.008-0.778h1.185c0.209 0 0.38-0.026 0.513-0.079 0.133-0.055 0.233-0.135 0.298-0.238 0.068-0.106 0.102-0.234 0.102-0.385 0-0.171-0.033-0.309-0.098-0.415-0.063-0.106-0.162-0.182-0.298-0.23-0.133-0.048-0.306-0.072-0.517-0.072h-0.785v4.61h-1.133v-5.497h1.918c0.32 0 0.605 0.030 0.857 0.091 0.254 0.060 0.469 0.152 0.646 0.276s0.311 0.279 0.404 0.468c0.093 0.186 0.14 0.408 0.14 0.664 0 0.226-0.052 0.435-0.155 0.627-0.101 0.191-0.261 0.347-0.479 0.468-0.216 0.121-0.5 0.188-0.849 0.2l-0.328 0.291zM3.148 31.785h-1.672l0.442-0.883h1.231c0.199 0 0.361-0.032 0.487-0.095 0.126-0.065 0.219-0.154 0.279-0.264s0.091-0.238 0.091-0.381c0-0.161-0.028-0.301-0.083-0.419-0.053-0.118-0.138-0.209-0.257-0.272-0.118-0.066-0.274-0.098-0.468-0.098h-1.091l0.008-0.778h1.359l0.26 0.306c0.335-0.005 0.604 0.054 0.808 0.177 0.206 0.121 0.356 0.278 0.449 0.472 0.096 0.194 0.143 0.401 0.143 0.623 0 0.352-0.077 0.649-0.23 0.891-0.154 0.239-0.379 0.419-0.676 0.54-0.294 0.121-0.654 0.181-1.080 0.181zM8.486 30.807v-3.107h1.087v4.085h-1.023l-0.064-0.978zM8.607 29.969l0.321-0.008c0 0.272-0.031 0.525-0.094 0.759-0.063 0.232-0.157 0.433-0.283 0.604-0.126 0.169-0.284 0.301-0.476 0.396-0.191 0.093-0.417 0.14-0.676 0.14-0.199 0-0.383-0.028-0.551-0.083-0.166-0.058-0.31-0.147-0.43-0.268-0.118-0.123-0.211-0.281-0.279-0.472-0.065-0.194-0.098-0.427-0.098-0.698v-2.639h1.087v2.647c0 0.121 0.014 0.223 0.042 0.306 0.030 0.083 0.072 0.151 0.125 0.204s0.114 0.091 0.185 0.113c0.073 0.023 0.154 0.034 0.242 0.034 0.224 0 0.4-0.045 0.529-0.136 0.131-0.091 0.223-0.214 0.276-0.37 0.055-0.159 0.083-0.335 0.083-0.529zM12.767 30.656c0-0.078-0.023-0.148-0.068-0.211s-0.13-0.121-0.253-0.174c-0.121-0.055-0.296-0.106-0.525-0.151-0.206-0.045-0.399-0.102-0.578-0.17-0.176-0.070-0.33-0.155-0.461-0.253-0.128-0.098-0.229-0.214-0.302-0.347-0.073-0.136-0.11-0.291-0.11-0.464 0-0.171 0.037-0.332 0.11-0.483 0.075-0.151 0.182-0.284 0.321-0.4 0.141-0.118 0.312-0.21 0.513-0.276 0.204-0.068 0.433-0.102 0.687-0.102 0.355 0 0.659 0.057 0.914 0.17 0.257 0.113 0.453 0.269 0.589 0.468 0.138 0.196 0.208 0.42 0.208 0.672h-1.087c0-0.106-0.023-0.2-0.068-0.283-0.043-0.085-0.111-0.152-0.204-0.2-0.091-0.050-0.209-0.076-0.355-0.076-0.121 0-0.225 0.021-0.313 0.064-0.088 0.040-0.156 0.096-0.204 0.166-0.045 0.068-0.068 0.143-0.068 0.227 0 0.063 0.013 0.12 0.038 0.17 0.028 0.048 0.072 0.092 0.132 0.132s0.138 0.078 0.234 0.113c0.098 0.033 0.219 0.063 0.362 0.090 0.294 0.061 0.557 0.14 0.789 0.238 0.232 0.096 0.415 0.226 0.551 0.393 0.136 0.164 0.204 0.379 0.204 0.646 0 0.181-0.040 0.347-0.121 0.498s-0.196 0.283-0.347 0.396c-0.151 0.111-0.332 0.198-0.544 0.261-0.209 0.060-0.444 0.091-0.706 0.091-0.38 0-0.702-0.068-0.966-0.204-0.262-0.136-0.461-0.308-0.596-0.517-0.133-0.211-0.2-0.428-0.2-0.649h1.031c0.005 0.148 0.043 0.268 0.113 0.359 0.073 0.090 0.165 0.156 0.276 0.196 0.113 0.040 0.235 0.060 0.366 0.060 0.141 0 0.258-0.019 0.351-0.057 0.093-0.040 0.164-0.093 0.211-0.159 0.050-0.068 0.075-0.146 0.075-0.234zM15.832 27.7v4.085h-1.091v-4.085h1.091zM14.673 26.636c0-0.159 0.055-0.289 0.166-0.393s0.259-0.155 0.445-0.155c0.184 0 0.331 0.052 0.442 0.155 0.113 0.103 0.17 0.234 0.17 0.393s-0.057 0.29-0.17 0.393c-0.111 0.103-0.258 0.155-0.442 0.155-0.186 0-0.335-0.052-0.445-0.155s-0.166-0.234-0.166-0.393zM17.95 28.573v3.213h-1.087v-4.085h1.019l0.068 0.872zM17.791 29.599h-0.294c0-0.302 0.039-0.574 0.117-0.815 0.078-0.244 0.188-0.452 0.328-0.623 0.141-0.174 0.308-0.306 0.502-0.396 0.196-0.093 0.415-0.14 0.657-0.14 0.191 0 0.366 0.028 0.525 0.083s0.294 0.143 0.408 0.264c0.116 0.121 0.204 0.281 0.264 0.48 0.063 0.199 0.094 0.442 0.094 0.728v2.605h-1.095v-2.609c0-0.181-0.025-0.322-0.076-0.423s-0.125-0.171-0.223-0.212c-0.096-0.043-0.214-0.064-0.355-0.064-0.146 0-0.273 0.029-0.381 0.087-0.106 0.058-0.194 0.138-0.264 0.242-0.068 0.101-0.12 0.219-0.155 0.355s-0.053 0.282-0.053 0.438zM23.254 31.861c-0.317 0-0.601-0.050-0.853-0.151-0.252-0.103-0.466-0.245-0.642-0.427-0.174-0.181-0.307-0.391-0.4-0.63-0.093-0.242-0.14-0.498-0.14-0.77v-0.151c0-0.31 0.044-0.593 0.132-0.85s0.214-0.479 0.378-0.668c0.166-0.189 0.367-0.334 0.604-0.434 0.237-0.103 0.503-0.155 0.8-0.155 0.289 0 0.546 0.048 0.77 0.143s0.412 0.232 0.562 0.408c0.154 0.176 0.269 0.388 0.347 0.634 0.078 0.244 0.117 0.516 0.117 0.815v0.453h-3.247v-0.725h2.178v-0.083c0-0.151-0.028-0.286-0.083-0.404-0.053-0.121-0.133-0.216-0.242-0.287s-0.247-0.106-0.415-0.106c-0.143 0-0.267 0.031-0.37 0.094s-0.188 0.151-0.253 0.264c-0.063 0.113-0.111 0.247-0.143 0.4-0.030 0.151-0.045 0.317-0.045 0.498v0.151c0 0.163 0.023 0.314 0.068 0.453 0.048 0.139 0.114 0.258 0.2 0.359 0.088 0.101 0.194 0.179 0.317 0.234 0.126 0.055 0.268 0.083 0.427 0.083 0.196 0 0.379-0.038 0.547-0.113 0.171-0.078 0.318-0.195 0.442-0.351l0.529 0.574c-0.085 0.123-0.203 0.242-0.351 0.355-0.146 0.113-0.322 0.206-0.529 0.279-0.206 0.071-0.442 0.106-0.706 0.106zM27.912 30.656c0-0.078-0.023-0.148-0.068-0.211s-0.13-0.121-0.253-0.174c-0.121-0.055-0.296-0.106-0.525-0.151-0.206-0.045-0.399-0.102-0.578-0.17-0.176-0.070-0.33-0.155-0.46-0.253-0.128-0.098-0.229-0.214-0.302-0.347-0.073-0.136-0.109-0.291-0.109-0.464 0-0.171 0.036-0.332 0.109-0.483 0.076-0.151 0.183-0.284 0.321-0.4 0.141-0.118 0.312-0.21 0.514-0.276 0.204-0.068 0.433-0.102 0.687-0.102 0.355 0 0.66 0.057 0.914 0.17 0.257 0.113 0.453 0.269 0.589 0.468 0.139 0.196 0.208 0.42 0.208 0.672h-1.087c0-0.106-0.023-0.2-0.068-0.283-0.043-0.085-0.111-0.152-0.204-0.2-0.091-0.050-0.209-0.076-0.355-0.076-0.121 0-0.225 0.021-0.313 0.064-0.088 0.040-0.156 0.096-0.204 0.166-0.045 0.068-0.068 0.143-0.068 0.227 0 0.063 0.013 0.12 0.038 0.17 0.028 0.048 0.072 0.092 0.132 0.132s0.139 0.078 0.234 0.113c0.098 0.033 0.219 0.063 0.362 0.090 0.295 0.061 0.558 0.14 0.789 0.238 0.232 0.096 0.415 0.226 0.551 0.393 0.136 0.164 0.204 0.379 0.204 0.646 0 0.181-0.040 0.347-0.121 0.498s-0.196 0.283-0.347 0.396c-0.151 0.111-0.332 0.198-0.544 0.261-0.209 0.060-0.444 0.091-0.706 0.091-0.38 0-0.702-0.068-0.966-0.204-0.262-0.136-0.461-0.308-0.596-0.517-0.134-0.211-0.2-0.428-0.2-0.649h1.031c0.005 0.148 0.043 0.268 0.113 0.359 0.073 0.090 0.165 0.156 0.276 0.196 0.113 0.040 0.235 0.060 0.366 0.060 0.141 0 0.258-0.019 0.351-0.057 0.093-0.040 0.164-0.093 0.211-0.159 0.050-0.068 0.076-0.146 0.076-0.234zM32.038 30.656c0-0.078-0.023-0.148-0.068-0.211s-0.13-0.121-0.253-0.174c-0.121-0.055-0.296-0.106-0.525-0.151-0.206-0.045-0.399-0.102-0.578-0.17-0.176-0.070-0.33-0.155-0.46-0.253-0.128-0.098-0.229-0.214-0.302-0.347-0.073-0.136-0.109-0.291-0.109-0.464 0-0.171 0.037-0.332 0.109-0.483 0.076-0.151 0.183-0.284 0.321-0.4 0.141-0.118 0.312-0.21 0.513-0.276 0.204-0.068 0.433-0.102 0.687-0.102 0.355 0 0.66 0.057 0.914 0.17 0.257 0.113 0.453 0.269 0.589 0.468 0.138 0.196 0.207 0.42 0.207 0.672h-1.087c0-0.106-0.023-0.2-0.068-0.283-0.043-0.085-0.111-0.152-0.204-0.2-0.091-0.050-0.209-0.076-0.355-0.076-0.121 0-0.225 0.021-0.313 0.064-0.088 0.040-0.156 0.096-0.204 0.166-0.045 0.068-0.068 0.143-0.068 0.227 0 0.063 0.013 0.12 0.038 0.17 0.028 0.048 0.072 0.092 0.132 0.132s0.139 0.078 0.234 0.113c0.098 0.033 0.219 0.063 0.363 0.090 0.294 0.061 0.557 0.14 0.789 0.238 0.232 0.096 0.415 0.226 0.551 0.393 0.136 0.164 0.204 0.379 0.204 0.646 0 0.181-0.040 0.347-0.121 0.498s-0.196 0.283-0.347 0.396c-0.151 0.111-0.332 0.198-0.544 0.261-0.209 0.060-0.444 0.091-0.706 0.091-0.38 0-0.702-0.068-0.966-0.204-0.262-0.136-0.461-0.308-0.596-0.517-0.133-0.211-0.2-0.428-0.2-0.649h1.031c0.005 0.148 0.043 0.268 0.113 0.359 0.073 0.090 0.165 0.156 0.276 0.196 0.113 0.040 0.235 0.060 0.366 0.060 0.141 0 0.258-0.019 0.351-0.057 0.093-0.040 0.164-0.093 0.212-0.159 0.050-0.068 0.075-0.146 0.075-0.234z"></path>
</symbol>
<symbol id="icon-Effective-Solutions-for-Your-Business" viewBox="0 0 34 32">
<path d="M5.126 5.13v0.883h-2.926v-0.883h2.926zM2.571 0.517v5.497h-1.133v-5.497h1.133zM4.745 2.755v0.861h-2.544v-0.861h2.544zM5.123 0.517v0.887h-2.922v-0.887h2.922zM7.191 6.013h-1.095v-4.447c0-0.31 0.060-0.57 0.181-0.781 0.123-0.214 0.296-0.375 0.517-0.483 0.224-0.111 0.489-0.166 0.797-0.166 0.101 0 0.198 0.008 0.291 0.023 0.093 0.013 0.184 0.029 0.272 0.049l-0.011 0.819c-0.048-0.013-0.098-0.021-0.151-0.026s-0.114-0.008-0.185-0.008c-0.131 0-0.243 0.023-0.336 0.068-0.091 0.043-0.16 0.107-0.208 0.193s-0.072 0.19-0.072 0.313v4.447zM8.007 1.929v0.77h-2.518v-0.77h2.518zM10.117 6.013h-1.095v-4.447c0-0.31 0.060-0.57 0.181-0.781 0.123-0.214 0.296-0.375 0.517-0.483 0.224-0.111 0.489-0.166 0.797-0.166 0.101 0 0.198 0.008 0.291 0.023 0.093 0.013 0.184 0.029 0.272 0.049l-0.011 0.819c-0.048-0.013-0.098-0.021-0.151-0.026s-0.114-0.008-0.185-0.008c-0.131 0-0.243 0.023-0.336 0.068-0.091 0.043-0.16 0.107-0.208 0.193s-0.072 0.19-0.072 0.313v4.447zM10.932 1.929v0.77h-2.518v-0.77h2.518zM13.446 6.089c-0.317 0-0.601-0.050-0.853-0.151-0.252-0.103-0.466-0.245-0.642-0.427-0.174-0.181-0.307-0.391-0.4-0.63-0.093-0.242-0.14-0.498-0.14-0.77v-0.151c0-0.31 0.044-0.593 0.132-0.849s0.214-0.479 0.377-0.668c0.166-0.189 0.367-0.333 0.604-0.434 0.237-0.103 0.503-0.155 0.8-0.155 0.289 0 0.546 0.048 0.77 0.143s0.412 0.232 0.563 0.408c0.154 0.176 0.269 0.388 0.347 0.634 0.078 0.244 0.117 0.516 0.117 0.815v0.453h-3.247v-0.725h2.178v-0.083c0-0.151-0.028-0.286-0.083-0.404-0.053-0.121-0.133-0.216-0.242-0.287s-0.247-0.106-0.415-0.106c-0.143 0-0.267 0.031-0.37 0.094s-0.188 0.151-0.253 0.264c-0.063 0.113-0.111 0.247-0.143 0.4-0.030 0.151-0.045 0.317-0.045 0.498v0.151c0 0.164 0.023 0.315 0.068 0.453 0.048 0.138 0.114 0.258 0.2 0.359 0.088 0.101 0.194 0.179 0.317 0.234 0.126 0.055 0.268 0.083 0.427 0.083 0.196 0 0.379-0.038 0.547-0.113 0.171-0.078 0.318-0.195 0.442-0.351l0.529 0.574c-0.086 0.123-0.203 0.242-0.351 0.355-0.146 0.113-0.322 0.206-0.528 0.279-0.206 0.070-0.442 0.106-0.706 0.106zM17.584 5.24c0.133 0 0.252-0.025 0.355-0.075 0.103-0.053 0.184-0.126 0.242-0.219 0.060-0.096 0.092-0.208 0.094-0.336h1.023c-0.003 0.287-0.079 0.542-0.23 0.766-0.151 0.221-0.354 0.396-0.608 0.525-0.254 0.126-0.539 0.189-0.853 0.189-0.317 0-0.594-0.053-0.831-0.159-0.234-0.106-0.429-0.252-0.585-0.438-0.156-0.189-0.273-0.408-0.351-0.657-0.078-0.252-0.117-0.521-0.117-0.808v-0.11c0-0.289 0.039-0.559 0.117-0.808 0.078-0.252 0.195-0.471 0.351-0.657 0.156-0.189 0.351-0.336 0.585-0.442s0.508-0.159 0.823-0.159c0.335 0 0.628 0.064 0.88 0.193 0.254 0.128 0.453 0.312 0.596 0.551 0.146 0.237 0.22 0.517 0.223 0.842h-1.023c-0.003-0.136-0.031-0.259-0.087-0.37-0.053-0.111-0.131-0.199-0.234-0.264-0.101-0.068-0.225-0.102-0.374-0.102-0.159 0-0.288 0.034-0.389 0.102-0.101 0.065-0.179 0.156-0.234 0.272-0.055 0.113-0.094 0.243-0.117 0.389-0.020 0.143-0.030 0.294-0.030 0.453v0.109c0 0.159 0.010 0.311 0.030 0.457s0.058 0.276 0.113 0.389c0.058 0.113 0.137 0.203 0.238 0.268s0.232 0.098 0.393 0.098zM22.084 1.929v0.77h-2.378v-0.77h2.378zM20.294 0.921h1.087v3.862c0 0.118 0.015 0.209 0.045 0.272 0.033 0.063 0.081 0.107 0.143 0.132 0.063 0.023 0.142 0.034 0.238 0.034 0.068 0 0.128-0.003 0.181-0.008 0.055-0.008 0.102-0.015 0.14-0.023l0.004 0.8c-0.093 0.030-0.194 0.054-0.302 0.072s-0.228 0.026-0.359 0.026c-0.239 0-0.448-0.039-0.627-0.117-0.176-0.081-0.312-0.209-0.408-0.385s-0.143-0.408-0.143-0.695v-3.971zM24.005 1.929v4.085h-1.091v-4.085h1.091zM22.846 0.864c0-0.159 0.055-0.289 0.166-0.393s0.259-0.155 0.446-0.155c0.184 0 0.331 0.052 0.442 0.155 0.113 0.103 0.17 0.234 0.17 0.393s-0.056 0.289-0.17 0.393c-0.111 0.103-0.258 0.155-0.442 0.155-0.186 0-0.335-0.052-0.446-0.155s-0.166-0.234-0.166-0.393zM26.447 5.221l0.906-3.292h1.136l-1.378 4.085h-0.687l0.023-0.793zM25.824 1.929l0.91 3.296 0.019 0.789h-0.691l-1.378-4.085h1.14zM30.959 6.089c-0.317 0-0.602-0.050-0.853-0.151-0.252-0.103-0.466-0.245-0.642-0.427-0.174-0.181-0.307-0.391-0.4-0.63-0.093-0.242-0.14-0.498-0.14-0.77v-0.151c0-0.31 0.044-0.593 0.132-0.849s0.214-0.479 0.378-0.668c0.166-0.189 0.367-0.333 0.604-0.434 0.236-0.103 0.503-0.155 0.8-0.155 0.29 0 0.546 0.048 0.77 0.143s0.412 0.232 0.562 0.408c0.154 0.176 0.269 0.388 0.347 0.634 0.078 0.244 0.117 0.516 0.117 0.815v0.453h-3.247v-0.725h2.178v-0.083c0-0.151-0.028-0.286-0.083-0.404-0.053-0.121-0.133-0.216-0.242-0.287s-0.247-0.106-0.415-0.106c-0.143 0-0.267 0.031-0.37 0.094s-0.188 0.151-0.253 0.264c-0.063 0.113-0.111 0.247-0.143 0.4-0.030 0.151-0.045 0.317-0.045 0.498v0.151c0 0.164 0.023 0.315 0.068 0.453 0.048 0.138 0.114 0.258 0.2 0.359 0.088 0.101 0.194 0.179 0.317 0.234 0.126 0.055 0.268 0.083 0.427 0.083 0.196 0 0.379-0.038 0.547-0.113 0.171-0.078 0.319-0.195 0.442-0.351l0.529 0.574c-0.086 0.123-0.203 0.242-0.351 0.355-0.146 0.113-0.322 0.206-0.529 0.279-0.206 0.070-0.442 0.106-0.706 0.106zM3.278 13.166c0-0.098-0.015-0.186-0.045-0.264-0.028-0.081-0.081-0.154-0.159-0.219-0.078-0.068-0.188-0.135-0.328-0.2s-0.323-0.133-0.547-0.204c-0.249-0.081-0.486-0.171-0.71-0.272-0.221-0.101-0.418-0.218-0.589-0.351-0.169-0.136-0.302-0.293-0.4-0.472-0.096-0.179-0.143-0.386-0.143-0.623 0-0.229 0.050-0.437 0.151-0.623 0.101-0.189 0.242-0.35 0.423-0.483 0.181-0.136 0.395-0.24 0.642-0.313 0.249-0.073 0.522-0.11 0.819-0.11 0.405 0 0.759 0.073 1.061 0.219s0.536 0.346 0.702 0.6c0.169 0.254 0.253 0.545 0.253 0.872h-1.125c0-0.161-0.034-0.302-0.102-0.423-0.065-0.123-0.166-0.22-0.302-0.291-0.133-0.070-0.302-0.106-0.506-0.106-0.196 0-0.36 0.030-0.491 0.091-0.131 0.058-0.229 0.137-0.294 0.238-0.065 0.098-0.098 0.209-0.098 0.332 0 0.093 0.023 0.177 0.068 0.253 0.048 0.075 0.118 0.146 0.211 0.211s0.208 0.127 0.344 0.185c0.136 0.058 0.293 0.114 0.472 0.17 0.3 0.091 0.563 0.193 0.789 0.306 0.229 0.113 0.42 0.24 0.574 0.381s0.269 0.301 0.347 0.479c0.078 0.179 0.117 0.381 0.117 0.608 0 0.239-0.047 0.453-0.14 0.642s-0.228 0.349-0.404 0.479c-0.176 0.131-0.386 0.23-0.63 0.298s-0.517 0.102-0.819 0.102c-0.272 0-0.54-0.035-0.804-0.106-0.264-0.073-0.505-0.182-0.721-0.328-0.214-0.146-0.385-0.332-0.513-0.559s-0.193-0.495-0.193-0.804h1.136c0 0.171 0.026 0.316 0.079 0.434s0.127 0.214 0.223 0.287c0.098 0.073 0.214 0.126 0.347 0.159 0.136 0.033 0.284 0.049 0.445 0.049 0.196 0 0.357-0.028 0.483-0.083 0.128-0.055 0.223-0.132 0.283-0.23 0.063-0.098 0.094-0.209 0.094-0.332zM5.094 12.603v-0.079c0-0.3 0.043-0.575 0.128-0.827 0.086-0.254 0.21-0.474 0.374-0.661s0.365-0.331 0.604-0.434c0.239-0.106 0.513-0.159 0.823-0.159s0.585 0.053 0.827 0.159c0.242 0.103 0.444 0.248 0.608 0.434 0.166 0.186 0.292 0.406 0.377 0.661 0.086 0.252 0.128 0.527 0.128 0.827v0.079c0 0.297-0.043 0.573-0.128 0.827-0.086 0.252-0.211 0.472-0.377 0.661-0.164 0.186-0.365 0.331-0.604 0.434s-0.513 0.155-0.823 0.155c-0.31 0-0.585-0.052-0.827-0.155-0.239-0.103-0.442-0.248-0.608-0.434-0.164-0.189-0.288-0.409-0.374-0.661-0.086-0.254-0.128-0.53-0.128-0.827zM6.181 12.524v0.079c0 0.171 0.015 0.331 0.045 0.479s0.078 0.279 0.143 0.393c0.068 0.111 0.156 0.198 0.264 0.261s0.24 0.094 0.396 0.094c0.151 0 0.281-0.031 0.389-0.094s0.195-0.15 0.261-0.261c0.065-0.113 0.113-0.244 0.143-0.393 0.033-0.149 0.049-0.308 0.049-0.479v-0.079c0-0.166-0.016-0.322-0.049-0.468-0.030-0.149-0.079-0.279-0.147-0.393-0.065-0.116-0.152-0.206-0.26-0.272s-0.239-0.098-0.393-0.098c-0.154 0-0.284 0.033-0.393 0.098-0.106 0.065-0.193 0.156-0.261 0.272-0.065 0.113-0.113 0.244-0.143 0.393-0.030 0.146-0.045 0.302-0.045 0.468zM10.934 8.805v5.799h-1.091v-5.799h1.091zM14.403 13.626v-3.107h1.087v4.085h-1.023l-0.064-0.978zM14.524 12.788l0.321-0.008c0 0.272-0.031 0.525-0.094 0.759-0.063 0.232-0.157 0.433-0.283 0.604-0.126 0.169-0.284 0.301-0.476 0.396-0.191 0.093-0.416 0.14-0.676 0.14-0.199 0-0.383-0.028-0.551-0.083-0.166-0.058-0.31-0.147-0.43-0.268-0.118-0.123-0.211-0.281-0.279-0.472-0.065-0.194-0.098-0.427-0.098-0.698v-2.639h1.087v2.646c0 0.121 0.014 0.223 0.042 0.306 0.030 0.083 0.072 0.151 0.125 0.204s0.114 0.091 0.185 0.113c0.073 0.023 0.153 0.034 0.242 0.034 0.224 0 0.4-0.045 0.528-0.136 0.131-0.091 0.223-0.214 0.276-0.37 0.055-0.159 0.083-0.335 0.083-0.529zM18.477 10.519v0.77h-2.378v-0.77h2.378zM16.687 9.511h1.087v3.862c0 0.118 0.015 0.209 0.045 0.272 0.033 0.063 0.081 0.107 0.143 0.132 0.063 0.023 0.142 0.034 0.238 0.034 0.068 0 0.128-0.002 0.181-0.008 0.055-0.008 0.102-0.015 0.14-0.023l0.004 0.8c-0.093 0.030-0.194 0.054-0.302 0.072s-0.228 0.026-0.359 0.026c-0.239 0-0.448-0.039-0.627-0.117-0.176-0.081-0.312-0.209-0.408-0.385s-0.143-0.408-0.143-0.695v-3.971zM20.398 10.519v4.085h-1.091v-4.085h1.091zM19.239 9.455c0-0.159 0.055-0.289 0.166-0.393s0.259-0.155 0.445-0.155c0.184 0 0.331 0.052 0.442 0.155 0.113 0.103 0.17 0.234 0.17 0.393s-0.057 0.289-0.17 0.393c-0.111 0.103-0.258 0.155-0.442 0.155-0.186 0-0.335-0.052-0.445-0.155s-0.166-0.234-0.166-0.393zM21.277 12.603v-0.079c0-0.3 0.043-0.575 0.128-0.827 0.086-0.254 0.21-0.474 0.374-0.661s0.365-0.331 0.604-0.434c0.239-0.106 0.514-0.159 0.823-0.159s0.585 0.053 0.827 0.159c0.242 0.103 0.444 0.248 0.608 0.434 0.166 0.186 0.292 0.406 0.378 0.661 0.085 0.252 0.128 0.527 0.128 0.827v0.079c0 0.297-0.043 0.573-0.128 0.827-0.086 0.252-0.212 0.472-0.378 0.661-0.164 0.186-0.365 0.331-0.604 0.434s-0.513 0.155-0.823 0.155c-0.309 0-0.585-0.052-0.827-0.155-0.239-0.103-0.442-0.248-0.608-0.434-0.164-0.189-0.288-0.409-0.374-0.661-0.086-0.254-0.128-0.53-0.128-0.827zM22.365 12.524v0.079c0 0.171 0.015 0.331 0.045 0.479s0.078 0.279 0.143 0.393c0.068 0.111 0.156 0.198 0.264 0.261s0.24 0.094 0.396 0.094c0.151 0 0.281-0.031 0.389-0.094s0.195-0.15 0.261-0.261c0.066-0.113 0.113-0.244 0.143-0.393 0.033-0.149 0.049-0.308 0.049-0.479v-0.079c0-0.166-0.016-0.322-0.049-0.468-0.030-0.149-0.079-0.279-0.147-0.393-0.065-0.116-0.152-0.206-0.261-0.272s-0.239-0.098-0.393-0.098c-0.154 0-0.284 0.033-0.393 0.098-0.106 0.065-0.192 0.156-0.261 0.272-0.065 0.113-0.113 0.244-0.143 0.393-0.030 0.146-0.045 0.302-0.045 0.468zM27.034 11.391v3.213h-1.087v-4.085h1.019l0.068 0.872zM26.876 12.418h-0.294c0-0.302 0.039-0.574 0.117-0.815 0.078-0.244 0.188-0.452 0.329-0.623 0.141-0.174 0.308-0.306 0.502-0.396 0.197-0.093 0.415-0.14 0.657-0.14 0.191 0 0.366 0.028 0.525 0.083s0.295 0.143 0.408 0.264c0.116 0.121 0.204 0.281 0.264 0.479 0.063 0.199 0.095 0.442 0.095 0.729v2.605h-1.095v-2.609c0-0.181-0.025-0.322-0.075-0.423s-0.125-0.171-0.223-0.211c-0.096-0.043-0.214-0.064-0.355-0.064-0.146 0-0.273 0.029-0.381 0.087-0.106 0.058-0.194 0.138-0.264 0.242-0.068 0.101-0.119 0.219-0.155 0.355s-0.053 0.282-0.053 0.438zM32.667 13.475c0-0.078-0.023-0.149-0.068-0.211s-0.13-0.121-0.253-0.174c-0.121-0.055-0.296-0.106-0.525-0.151-0.206-0.045-0.399-0.102-0.578-0.17-0.176-0.070-0.33-0.155-0.461-0.253-0.128-0.098-0.229-0.214-0.302-0.347-0.073-0.136-0.11-0.291-0.11-0.464 0-0.171 0.037-0.332 0.11-0.483 0.075-0.151 0.182-0.284 0.321-0.4 0.141-0.118 0.312-0.21 0.514-0.276 0.204-0.068 0.433-0.102 0.687-0.102 0.355 0 0.659 0.057 0.914 0.17 0.257 0.113 0.453 0.269 0.589 0.468 0.138 0.196 0.208 0.42 0.208 0.672h-1.087c0-0.106-0.023-0.2-0.068-0.283-0.043-0.086-0.111-0.152-0.204-0.2-0.091-0.050-0.209-0.075-0.355-0.075-0.121 0-0.225 0.021-0.313 0.064-0.088 0.040-0.156 0.096-0.204 0.166-0.045 0.068-0.068 0.143-0.068 0.226 0 0.063 0.012 0.12 0.038 0.17 0.028 0.048 0.072 0.092 0.132 0.132s0.138 0.078 0.234 0.113c0.098 0.033 0.219 0.063 0.362 0.091 0.294 0.060 0.558 0.14 0.789 0.238 0.232 0.096 0.415 0.226 0.551 0.393 0.136 0.164 0.204 0.379 0.204 0.646 0 0.181-0.040 0.347-0.121 0.498s-0.196 0.283-0.347 0.396c-0.151 0.111-0.332 0.198-0.544 0.261-0.209 0.060-0.444 0.091-0.706 0.091-0.38 0-0.702-0.068-0.966-0.204-0.262-0.136-0.46-0.308-0.596-0.517-0.133-0.211-0.2-0.428-0.2-0.649h1.031c0.005 0.149 0.043 0.268 0.113 0.359 0.073 0.091 0.165 0.156 0.276 0.196 0.113 0.040 0.235 0.060 0.366 0.060 0.141 0 0.258-0.019 0.351-0.057 0.093-0.040 0.163-0.093 0.211-0.159 0.050-0.068 0.076-0.146 0.076-0.234zM3.297 17.698v5.497h-1.133v-5.497h1.133zM5.487 20.046v0.883h-2.499v-0.883h2.499zM5.751 17.698v0.887h-2.763v-0.887h2.763zM6.238 21.194v-0.079c0-0.299 0.043-0.575 0.128-0.827 0.086-0.254 0.21-0.474 0.374-0.661s0.365-0.331 0.604-0.434c0.239-0.106 0.513-0.159 0.823-0.159s0.585 0.053 0.827 0.159c0.242 0.103 0.444 0.248 0.608 0.434 0.166 0.186 0.292 0.406 0.377 0.661 0.086 0.252 0.128 0.527 0.128 0.827v0.079c0 0.297-0.043 0.573-0.128 0.827-0.086 0.252-0.211 0.472-0.377 0.661-0.164 0.186-0.365 0.331-0.604 0.434s-0.513 0.155-0.823 0.155-0.585-0.052-0.827-0.155c-0.239-0.103-0.442-0.248-0.608-0.434-0.164-0.189-0.288-0.409-0.374-0.661-0.086-0.254-0.128-0.53-0.128-0.827zM7.325 21.115v0.079c0 0.171 0.015 0.331 0.045 0.479s0.078 0.279 0.143 0.393c0.068 0.111 0.156 0.198 0.264 0.261s0.24 0.094 0.396 0.094c0.151 0 0.281-0.031 0.389-0.094s0.195-0.15 0.261-0.261c0.065-0.113 0.113-0.244 0.143-0.393 0.033-0.148 0.049-0.308 0.049-0.479v-0.079c0-0.166-0.016-0.322-0.049-0.468-0.030-0.148-0.079-0.279-0.147-0.393-0.065-0.116-0.152-0.206-0.261-0.272s-0.239-0.098-0.393-0.098c-0.153 0-0.284 0.033-0.393 0.098-0.106 0.065-0.193 0.156-0.261 0.272-0.065 0.113-0.113 0.244-0.143 0.393-0.030 0.146-0.045 0.302-0.045 0.468zM12.018 20.001v3.194h-1.087v-4.085h1.023l0.064 0.891zM13.248 19.083l-0.019 1.008c-0.053-0.008-0.117-0.014-0.193-0.019-0.073-0.008-0.14-0.011-0.2-0.011-0.153 0-0.287 0.020-0.4 0.060-0.111 0.038-0.204 0.094-0.279 0.17-0.073 0.076-0.128 0.167-0.166 0.276-0.035 0.108-0.055 0.232-0.060 0.37l-0.219-0.068c0-0.264 0.026-0.507 0.079-0.729 0.053-0.224 0.13-0.419 0.23-0.585 0.103-0.166 0.229-0.294 0.377-0.385s0.318-0.136 0.51-0.136c0.060 0 0.122 0.005 0.185 0.015 0.063 0.008 0.115 0.019 0.155 0.034zM16.819 17.698l1.148 2.507 1.148-2.507h1.234l-1.808 3.496v2.001h-1.148v-2.001l-1.812-3.496h1.238zM20.515 21.194v-0.079c0-0.299 0.043-0.575 0.128-0.827 0.086-0.254 0.21-0.474 0.374-0.661s0.365-0.331 0.604-0.434c0.239-0.106 0.514-0.159 0.823-0.159s0.585 0.053 0.827 0.159c0.242 0.103 0.444 0.248 0.608 0.434 0.166 0.186 0.292 0.406 0.378 0.661 0.085 0.252 0.128 0.527 0.128 0.827v0.079c0 0.297-0.043 0.573-0.128 0.827-0.086 0.252-0.212 0.472-0.378 0.661-0.164 0.186-0.365 0.331-0.604 0.434s-0.513 0.155-0.823 0.155c-0.309 0-0.585-0.052-0.827-0.155-0.239-0.103-0.442-0.248-0.608-0.434-0.164-0.189-0.288-0.409-0.374-0.661-0.086-0.254-0.128-0.53-0.128-0.827zM21.602 21.115v0.079c0 0.171 0.015 0.331 0.045 0.479s0.078 0.279 0.143 0.393c0.068 0.111 0.156 0.198 0.264 0.261s0.24 0.094 0.396 0.094c0.151 0 0.281-0.031 0.389-0.094s0.195-0.15 0.261-0.261c0.065-0.113 0.113-0.244 0.143-0.393 0.033-0.148 0.049-0.308 0.049-0.479v-0.079c0-0.166-0.016-0.322-0.049-0.468-0.030-0.148-0.079-0.279-0.147-0.393-0.066-0.116-0.152-0.206-0.261-0.272s-0.239-0.098-0.393-0.098c-0.154 0-0.284 0.033-0.393 0.098-0.106 0.065-0.192 0.156-0.261 0.272-0.066 0.113-0.113 0.244-0.143 0.393-0.030 0.146-0.045 0.302-0.045 0.468zM27.624 22.217v-3.107h1.087v4.085h-1.023l-0.064-0.978zM27.744 21.379l0.321-0.008c0 0.272-0.031 0.525-0.094 0.759-0.063 0.232-0.157 0.433-0.283 0.604-0.126 0.169-0.284 0.301-0.476 0.396-0.191 0.093-0.417 0.14-0.676 0.14-0.199 0-0.383-0.028-0.551-0.083-0.166-0.058-0.31-0.147-0.43-0.268-0.118-0.123-0.212-0.281-0.279-0.472-0.066-0.194-0.098-0.427-0.098-0.698v-2.639h1.087v2.646c0 0.121 0.014 0.223 0.041 0.306 0.030 0.083 0.072 0.151 0.125 0.204s0.114 0.091 0.185 0.113c0.073 0.023 0.154 0.034 0.242 0.034 0.224 0 0.4-0.045 0.529-0.136 0.131-0.091 0.223-0.214 0.276-0.37 0.055-0.159 0.083-0.335 0.083-0.529zM30.783 20.001v3.194h-1.087v-4.085h1.023l0.064 0.891zM32.014 19.083l-0.019 1.008c-0.053-0.008-0.117-0.014-0.192-0.019-0.073-0.008-0.14-0.011-0.2-0.011-0.154 0-0.287 0.020-0.4 0.060-0.111 0.038-0.204 0.094-0.279 0.17-0.073 0.076-0.128 0.167-0.166 0.276-0.035 0.108-0.055 0.232-0.060 0.37l-0.219-0.068c0-0.264 0.026-0.507 0.079-0.729 0.053-0.224 0.13-0.419 0.23-0.585 0.103-0.166 0.229-0.294 0.378-0.385s0.319-0.136 0.51-0.136c0.061 0 0.122 0.005 0.185 0.015 0.063 0.008 0.114 0.019 0.155 0.034zM3.197 29.373h-1.412l-0.008-0.778h1.185c0.209 0 0.38-0.026 0.513-0.079 0.133-0.055 0.233-0.135 0.298-0.238 0.068-0.106 0.102-0.234 0.102-0.385 0-0.171-0.033-0.309-0.098-0.415-0.063-0.106-0.162-0.182-0.298-0.23-0.133-0.048-0.306-0.072-0.517-0.072h-0.785v4.61h-1.133v-5.497h1.918c0.32 0 0.605 0.030 0.857 0.091 0.254 0.060 0.469 0.152 0.646 0.276s0.311 0.279 0.404 0.468c0.093 0.186 0.14 0.408 0.14 0.664 0 0.226-0.052 0.435-0.155 0.627-0.101 0.191-0.261 0.347-0.479 0.468-0.216 0.121-0.5 0.188-0.849 0.2l-0.328 0.291zM3.148 31.785h-1.672l0.442-0.883h1.231c0.199 0 0.361-0.032 0.487-0.095 0.126-0.065 0.219-0.154 0.279-0.264s0.091-0.238 0.091-0.381c0-0.161-0.028-0.301-0.083-0.419-0.053-0.118-0.138-0.209-0.257-0.272-0.118-0.066-0.274-0.098-0.468-0.098h-1.091l0.008-0.778h1.359l0.26 0.306c0.335-0.005 0.604 0.054 0.808 0.177 0.206 0.121 0.356 0.278 0.449 0.472 0.096 0.194 0.143 0.401 0.143 0.623 0 0.352-0.077 0.649-0.23 0.891-0.154 0.239-0.379 0.419-0.676 0.54-0.294 0.121-0.654 0.181-1.080 0.181zM8.486 30.807v-3.107h1.087v4.085h-1.023l-0.064-0.978zM8.607 29.969l0.321-0.008c0 0.272-0.031 0.525-0.094 0.759-0.063 0.232-0.157 0.433-0.283 0.604-0.126 0.169-0.284 0.301-0.476 0.396-0.191 0.093-0.417 0.14-0.676 0.14-0.199 0-0.383-0.028-0.551-0.083-0.166-0.058-0.31-0.147-0.43-0.268-0.118-0.123-0.211-0.281-0.279-0.472-0.065-0.194-0.098-0.427-0.098-0.698v-2.639h1.087v2.647c0 0.121 0.014 0.223 0.042 0.306 0.030 0.083 0.072 0.151 0.125 0.204s0.114 0.091 0.185 0.113c0.073 0.023 0.154 0.034 0.242 0.034 0.224 0 0.4-0.045 0.529-0.136 0.131-0.091 0.223-0.214 0.276-0.37 0.055-0.159 0.083-0.335 0.083-0.529zM12.767 30.656c0-0.078-0.023-0.148-0.068-0.211s-0.13-0.121-0.253-0.174c-0.121-0.055-0.296-0.106-0.525-0.151-0.206-0.045-0.399-0.102-0.578-0.17-0.176-0.070-0.33-0.155-0.461-0.253-0.128-0.098-0.229-0.214-0.302-0.347-0.073-0.136-0.11-0.291-0.11-0.464 0-0.171 0.037-0.332 0.11-0.483 0.075-0.151 0.182-0.284 0.321-0.4 0.141-0.118 0.312-0.21 0.513-0.276 0.204-0.068 0.433-0.102 0.687-0.102 0.355 0 0.659 0.057 0.914 0.17 0.257 0.113 0.453 0.269 0.589 0.468 0.138 0.196 0.208 0.42 0.208 0.672h-1.087c0-0.106-0.023-0.2-0.068-0.283-0.043-0.085-0.111-0.152-0.204-0.2-0.091-0.050-0.209-0.076-0.355-0.076-0.121 0-0.225 0.021-0.313 0.064-0.088 0.040-0.156 0.096-0.204 0.166-0.045 0.068-0.068 0.143-0.068 0.227 0 0.063 0.013 0.12 0.038 0.17 0.028 0.048 0.072 0.092 0.132 0.132s0.138 0.078 0.234 0.113c0.098 0.033 0.219 0.063 0.362 0.090 0.294 0.061 0.557 0.14 0.789 0.238 0.232 0.096 0.415 0.226 0.551 0.393 0.136 0.164 0.204 0.379 0.204 0.646 0 0.181-0.040 0.347-0.121 0.498s-0.196 0.283-0.347 0.396c-0.151 0.111-0.332 0.198-0.544 0.261-0.209 0.060-0.444 0.091-0.706 0.091-0.38 0-0.702-0.068-0.966-0.204-0.262-0.136-0.461-0.308-0.596-0.517-0.133-0.211-0.2-0.428-0.2-0.649h1.031c0.005 0.148 0.043 0.268 0.113 0.359 0.073 0.090 0.165 0.156 0.276 0.196 0.113 0.040 0.235 0.060 0.366 0.060 0.141 0 0.258-0.019 0.351-0.057 0.093-0.040 0.164-0.093 0.211-0.159 0.050-0.068 0.075-0.146 0.075-0.234zM15.832 27.7v4.085h-1.091v-4.085h1.091zM14.673 26.636c0-0.159 0.055-0.289 0.166-0.393s0.259-0.155 0.445-0.155c0.184 0 0.331 0.052 0.442 0.155 0.113 0.103 0.17 0.234 0.17 0.393s-0.057 0.29-0.17 0.393c-0.111 0.103-0.258 0.155-0.442 0.155-0.186 0-0.335-0.052-0.445-0.155s-0.166-0.234-0.166-0.393zM17.95 28.573v3.213h-1.087v-4.085h1.019l0.068 0.872zM17.791 29.599h-0.294c0-0.302 0.039-0.574 0.117-0.815 0.078-0.244 0.188-0.452 0.328-0.623 0.141-0.174 0.308-0.306 0.502-0.396 0.196-0.093 0.415-0.14 0.657-0.14 0.191 0 0.366 0.028 0.525 0.083s0.294 0.143 0.408 0.264c0.116 0.121 0.204 0.281 0.264 0.48 0.063 0.199 0.094 0.442 0.094 0.728v2.605h-1.095v-2.609c0-0.181-0.025-0.322-0.076-0.423s-0.125-0.171-0.223-0.212c-0.096-0.043-0.214-0.064-0.355-0.064-0.146 0-0.273 0.029-0.381 0.087-0.106 0.058-0.194 0.138-0.264 0.242-0.068 0.101-0.12 0.219-0.155 0.355s-0.053 0.282-0.053 0.438zM23.254 31.861c-0.317 0-0.601-0.050-0.853-0.151-0.252-0.103-0.466-0.245-0.642-0.427-0.174-0.181-0.307-0.391-0.4-0.63-0.093-0.242-0.14-0.498-0.14-0.77v-0.151c0-0.31 0.044-0.593 0.132-0.85s0.214-0.479 0.378-0.668c0.166-0.189 0.367-0.334 0.604-0.434 0.237-0.103 0.503-0.155 0.8-0.155 0.289 0 0.546 0.048 0.77 0.143s0.412 0.232 0.562 0.408c0.154 0.176 0.269 0.388 0.347 0.634 0.078 0.244 0.117 0.516 0.117 0.815v0.453h-3.247v-0.725h2.178v-0.083c0-0.151-0.028-0.286-0.083-0.404-0.053-0.121-0.133-0.216-0.242-0.287s-0.247-0.106-0.415-0.106c-0.143 0-0.267 0.031-0.37 0.094s-0.188 0.151-0.253 0.264c-0.063 0.113-0.111 0.247-0.143 0.4-0.030 0.151-0.045 0.317-0.045 0.498v0.151c0 0.163 0.023 0.314 0.068 0.453 0.048 0.139 0.114 0.258 0.2 0.359 0.088 0.101 0.194 0.179 0.317 0.234 0.126 0.055 0.268 0.083 0.427 0.083 0.196 0 0.379-0.038 0.547-0.113 0.171-0.078 0.318-0.195 0.442-0.351l0.529 0.574c-0.085 0.123-0.203 0.242-0.351 0.355-0.146 0.113-0.322 0.206-0.529 0.279-0.206 0.071-0.442 0.106-0.706 0.106zM27.912 30.656c0-0.078-0.023-0.148-0.068-0.211s-0.13-0.121-0.253-0.174c-0.121-0.055-0.296-0.106-0.525-0.151-0.206-0.045-0.399-0.102-0.578-0.17-0.176-0.070-0.33-0.155-0.46-0.253-0.128-0.098-0.229-0.214-0.302-0.347-0.073-0.136-0.109-0.291-0.109-0.464 0-0.171 0.036-0.332 0.109-0.483 0.076-0.151 0.183-0.284 0.321-0.4 0.141-0.118 0.312-0.21 0.514-0.276 0.204-0.068 0.433-0.102 0.687-0.102 0.355 0 0.66 0.057 0.914 0.17 0.257 0.113 0.453 0.269 0.589 0.468 0.139 0.196 0.208 0.42 0.208 0.672h-1.087c0-0.106-0.023-0.2-0.068-0.283-0.043-0.085-0.111-0.152-0.204-0.2-0.091-0.050-0.209-0.076-0.355-0.076-0.121 0-0.225 0.021-0.313 0.064-0.088 0.040-0.156 0.096-0.204 0.166-0.045 0.068-0.068 0.143-0.068 0.227 0 0.063 0.013 0.12 0.038 0.17 0.028 0.048 0.072 0.092 0.132 0.132s0.139 0.078 0.234 0.113c0.098 0.033 0.219 0.063 0.362 0.090 0.295 0.061 0.558 0.14 0.789 0.238 0.232 0.096 0.415 0.226 0.551 0.393 0.136 0.164 0.204 0.379 0.204 0.646 0 0.181-0.040 0.347-0.121 0.498s-0.196 0.283-0.347 0.396c-0.151 0.111-0.332 0.198-0.544 0.261-0.209 0.060-0.444 0.091-0.706 0.091-0.38 0-0.702-0.068-0.966-0.204-0.262-0.136-0.461-0.308-0.596-0.517-0.134-0.211-0.2-0.428-0.2-0.649h1.031c0.005 0.148 0.043 0.268 0.113 0.359 0.073 0.090 0.165 0.156 0.276 0.196 0.113 0.040 0.235 0.060 0.366 0.060 0.141 0 0.258-0.019 0.351-0.057 0.093-0.040 0.164-0.093 0.211-0.159 0.050-0.068 0.076-0.146 0.076-0.234zM32.038 30.656c0-0.078-0.023-0.148-0.068-0.211s-0.13-0.121-0.253-0.174c-0.121-0.055-0.296-0.106-0.525-0.151-0.206-0.045-0.399-0.102-0.578-0.17-0.176-0.070-0.33-0.155-0.46-0.253-0.128-0.098-0.229-0.214-0.302-0.347-0.073-0.136-0.109-0.291-0.109-0.464 0-0.171 0.037-0.332 0.109-0.483 0.076-0.151 0.183-0.284 0.321-0.4 0.141-0.118 0.312-0.21 0.513-0.276 0.204-0.068 0.433-0.102 0.687-0.102 0.355 0 0.66 0.057 0.914 0.17 0.257 0.113 0.453 0.269 0.589 0.468 0.138 0.196 0.207 0.42 0.207 0.672h-1.087c0-0.106-0.023-0.2-0.068-0.283-0.043-0.085-0.111-0.152-0.204-0.2-0.091-0.050-0.209-0.076-0.355-0.076-0.121 0-0.225 0.021-0.313 0.064-0.088 0.040-0.156 0.096-0.204 0.166-0.045 0.068-0.068 0.143-0.068 0.227 0 0.063 0.013 0.12 0.038 0.17 0.028 0.048 0.072 0.092 0.132 0.132s0.139 0.078 0.234 0.113c0.098 0.033 0.219 0.063 0.363 0.090 0.294 0.061 0.557 0.14 0.789 0.238 0.232 0.096 0.415 0.226 0.551 0.393 0.136 0.164 0.204 0.379 0.204 0.646 0 0.181-0.040 0.347-0.121 0.498s-0.196 0.283-0.347 0.396c-0.151 0.111-0.332 0.198-0.544 0.261-0.209 0.060-0.444 0.091-0.706 0.091-0.38 0-0.702-0.068-0.966-0.204-0.262-0.136-0.461-0.308-0.596-0.517-0.133-0.211-0.2-0.428-0.2-0.649h1.031c0.005 0.148 0.043 0.268 0.113 0.359 0.073 0.090 0.165 0.156 0.276 0.196 0.113 0.040 0.235 0.060 0.366 0.060 0.141 0 0.258-0.019 0.351-0.057 0.093-0.040 0.164-0.093 0.212-0.159 0.050-0.068 0.075-0.146 0.075-0.234z"></path>
</symbol>


  </defs>
</svg>
